<svg xmlns="http://www.w3.org/2000/svg" viewBox="0 0 155.99 69.84"><title>Asset 2</title><g id="Layer_2" data-name="Layer 2"><g id="Layer_1-2" data-name="Layer 1"><path d="M36.89,28.9H51.46v4.46H32.19V.47h4.7Z"/><path d="M65,10.81A11.19,11.19,0,0,1,76.42,22.32a11.42,11.42,0,1,1-22.84,0A11.19,11.19,0,0,1,65,10.81Zm0,18.8a7,7,0,0,0,7-7.28,7,7,0,1,0-13.91,0A7,7,0,0,0,65,29.61Z"/><path d="M92.07,10.81a11.19,11.19,0,0,1,11.42,11.51,11.42,11.42,0,1,1-22.84,0A11.19,11.19,0,0,1,92.07,10.81Zm0,18.8a7,7,0,0,0,7-7.28,7,7,0,1,0-13.91,0A7,7,0,0,0,92.07,29.61Z"/><path d="M130.14,33.37h-6l-11-10.81V33.37h-4.46V0h4.46V19.74l9.21-8.46h6.3l-11,10Z"/><path d="M22.18,60.91H8.32L4.89,69.37H0l13.63-32.9h3.29l13.63,32.9H25.66Zm-12-4.46H20.35L15.27,44.22Z"/><path d="M48.13,47l-.52,4.28A6.37,6.37,0,0,0,45.87,51a7.4,7.4,0,0,0-6,3.71V69.37H35.44V47.28h4.32V51.6c.19-2.63,2.68-4.79,6.63-4.79A11.27,11.27,0,0,1,48.13,47Z"/><path d="M62.13,46.81A11.19,11.19,0,0,1,73.55,58.32a11.42,11.42,0,1,1-22.84,0A11.19,11.19,0,0,1,62.13,46.81Zm0,18.8a7,7,0,0,0,7-7.28,7,7,0,1,0-13.91,0A7,7,0,0,0,62.13,65.61Z"/><path d="M81.21,66.13c-1.36-1.69-2-3.85-2-7.57V47.28h4.46v12c0,2.26.47,3.48,1.27,4.42a5.64,5.64,0,0,0,4.28,1.93,8.41,8.41,0,0,0,6.2-3.15V47.28h4.46V69.37H95.55V64.9c-.14,2.73-2.63,4.94-6.49,4.94A10,10,0,0,1,81.21,66.13Z"/><path d="M126.85,50.71c1.41,1.79,2.16,4,2.16,7.85V69.37h-4.46v-11c0-2.82-.52-4.14-1.32-5.12A5.83,5.83,0,0,0,118.67,51a8.17,8.17,0,0,0-6.34,3.15V69.37h-4.46V47.28h4.32V51.6c.19-2.63,2.68-4.79,6.63-4.79A10.18,10.18,0,0,1,126.85,50.71Z"/><path d="M156,36V69.37h-4.32v-4.7c-.14,3-2.49,5.17-6.81,5.17a11.33,11.33,0,0,1-5.55-1.46,11.55,11.55,0,0,1-5.64-10.06,11.67,11.67,0,0,1,5.69-10.1,10.51,10.51,0,0,1,5.4-1.41c4.28,0,6.63,2.16,6.77,4.89V36Zm-4.46,18.19a8,8,0,0,0-6.3-3.15,7.07,7.07,0,0,0-7.1,7.28,7.21,7.21,0,0,0,7.33,7.28,7.66,7.66,0,0,0,6.06-3.15Z"/><circle cx="65.83" cy="21.83" r="3.08"/><circle cx="91.88" cy="21" r="3.08"/></g></g></svg>