# Blender v2.78 (sub 0) OBJ File: 'mountain.blend'
# www.blender.org
mtllib rock-2.mtl
o Icosphere
v 1.496923 0.530325 -1.863991
v 1.589562 0.530062 -1.783938
v 1.474417 0.588200 -1.710184
v 1.412621 0.634718 -1.832347
v 1.491656 0.642878 -1.928541
v 1.601608 0.598899 -1.892227
v 1.588791 0.681727 -1.701713
v 1.444498 0.745389 -1.759537
v 1.507293 0.764483 -1.875387
v 1.580725 0.721584 -1.900215
v 1.643742 0.675802 -1.804069
v 1.576107 0.807418 -1.772412
v 1.446718 0.465081 -1.779345
v 1.542020 0.412302 -1.814418
v 1.568622 0.505758 -1.740297
v 1.609135 0.570196 -1.834715
v 1.563020 0.553785 -1.878724
v 1.436982 0.577004 -1.849049
v 1.399035 0.564327 -1.776536
v 1.487971 0.582161 -1.902111
v 1.437653 0.630272 -1.917659
v 1.549104 0.613657 -1.927067
v 1.620304 0.619567 -1.787929
v 1.639464 0.634145 -1.853331
v 1.504066 0.642856 -1.700427
v 1.600121 0.599048 -1.740501
v 1.370892 0.637179 -1.804993
v 1.433825 0.651184 -1.701487
v 1.470089 0.700920 -1.916524
v 1.422625 0.695071 -1.853458
v 1.579564 0.681810 -1.899112
v 1.560308 0.724156 -1.916341
v 1.617378 0.670018 -1.744365
v 1.509065 0.709087 -1.690504
v 1.466624 0.789440 -1.812938
v 1.521607 0.746008 -1.893827
v 1.627362 0.706136 -1.858503
v 1.569770 0.721784 -1.718196
v 1.626886 0.740920 -1.788606
v 1.484392 0.830929 -1.762801
v 1.523365 0.841380 -1.811093
v 1.583202 0.767846 -1.851959
vn -0.5275 -0.4924 -0.6924
vn 0.9215 -0.3851 0.0508
vn -0.5437 -0.4772 -0.6904
vn -0.5768 -0.5463 -0.6074
vn 0.0290 -0.5889 -0.8077
vn 0.9414 -0.3184 0.1112
vn 0.1072 -0.2308 0.9671
vn -0.5016 -0.4760 -0.7224
vn -0.2225 0.1177 -0.9678
vn 0.5671 0.0827 -0.8195
vn 0.9170 -0.3034 0.2590
vn -0.0336 -0.1579 0.9869
vn -0.5457 -0.1946 -0.8150
vn -0.0459 0.1861 -0.9815
vn 0.6587 0.1134 -0.7438
vn 0.7692 0.5188 0.3731
vn -0.6070 0.3110 0.7313
vn -0.5347 0.6050 -0.5900
vn 0.2153 0.6994 -0.6815
vn 0.9516 0.2776 -0.1317
vn 0.7408 0.6254 -0.2450
vn 0.7657 0.5779 -0.2824
vn 0.6568 0.5272 -0.5391
vn 0.6586 0.6955 -0.2873
vn 0.2731 0.6275 -0.7291
vn -0.1233 0.6516 -0.7485
vn 0.2666 0.8748 0.4045
vn -0.6252 0.6956 -0.3540
vn -0.9063 0.4216 -0.0277
vn 0.2180 0.5105 0.8318
vn 0.2572 0.5311 0.8073
vn 0.2806 0.4762 0.8334
vn 0.6750 0.3584 0.6449
vn 0.6949 0.3113 0.6483
vn 0.9014 0.1357 0.4112
vn 0.9668 0.1475 -0.2087
vn 0.6316 0.0506 -0.7737
vn 0.6587 -0.0401 -0.7513
vn 0.3392 0.8960 -0.2866
vn -0.1459 0.5727 -0.8067
vn -0.1977 0.6115 -0.7661
vn -0.5941 0.5349 -0.6007
vn -0.8200 0.5011 -0.2767
vn -0.8408 0.5335 0.0917
vn -0.4875 0.4974 0.7176
vn -0.0322 -0.1457 0.9888
vn 0.0856 -0.1539 0.9844
vn 0.7984 -0.1626 0.5798
vn 0.9291 -0.2093 0.3048
vn 0.8911 -0.2659 0.3677
vn 0.6162 -0.0398 -0.7865
vn 0.6715 0.0038 -0.7410
vn 0.0709 0.0892 -0.9935
vn -0.6379 0.6453 -0.4202
vn -0.7616 0.3583 -0.5399
vn -0.9570 0.0593 -0.2839
vn -0.8159 0.3675 0.4464
vn -0.8412 -0.1189 0.5275
vn -0.5141 -0.4335 0.7401
vn 0.1947 -0.3946 0.8980
vn 0.3385 -0.1123 0.9342
vn 0.9133 -0.3078 0.2668
vn 0.9237 -0.3283 0.1974
vn 0.9079 -0.3777 0.1818
vn 0.8047 -0.4824 -0.3461
vn 0.3576 -0.5350 -0.7655
vn 0.0054 -0.6275 -0.7786
vn -0.1722 -0.3844 -0.9070
vn -0.0927 -0.3927 -0.9150
vn -0.4900 -0.6862 -0.5376
vn -0.9155 -0.3134 -0.2523
vn -0.8484 -0.2186 -0.4822
vn -0.7956 -0.3686 -0.4808
vn -0.5757 -0.2982 0.7613
vn 0.6280 -0.6604 -0.4118
vn 0.7061 -0.3772 -0.5993
vn -0.0593 -0.4057 -0.9121
vn -0.1260 -0.4642 0.8767
vn -0.0486 -0.6121 0.7893
vn 0.8900 -0.4106 0.1983
usemtl Material.001
s off
f 1//1 14//1 13//1
f 2//2 14//2 16//2
f 1//3 13//3 18//3
f 1//4 18//4 20//4
f 1//5 20//5 17//5
f 2//6 16//6 23//6
f 3//7 15//7 25//7
f 4//8 19//8 27//8
f 5//9 21//9 29//9
f 6//10 22//10 31//10
f 2//11 23//11 26//11
f 3//12 25//12 28//12
f 4//13 27//13 30//13
f 5//14 29//14 32//14
f 6//15 31//15 24//15
f 7//16 33//16 38//16
f 8//17 34//17 40//17
f 9//18 35//18 41//18
f 10//19 36//19 42//19
f 11//20 37//20 39//20
f 39//21 42//21 12//21
f 39//22 37//22 42//22
f 37//23 10//23 42//23
f 42//24 41//24 12//24
f 42//25 36//25 41//25
f 36//26 9//26 41//26
f 41//27 40//27 12//27
f 41//28 35//28 40//28
f 35//29 8//29 40//29
f 40//30 38//30 12//30
f 40//31 34//31 38//31
f 34//32 7//32 38//32
f 38//33 39//33 12//33
f 38//34 33//34 39//34
f 33//35 11//35 39//35
f 24//36 37//36 11//36
f 24//37 31//37 37//37
f 31//38 10//38 37//38
f 32//39 36//39 10//39
f 32//40 29//40 36//40
f 29//41 9//41 36//41
f 30//42 35//42 9//42
f 30//43 27//43 35//43
f 27//44 8//44 35//44
f 28//45 34//45 8//45
f 28//46 25//46 34//46
f 25//47 7//47 34//47
f 26//48 33//48 7//48
f 26//49 23//49 33//49
f 23//50 11//50 33//50
f 31//51 32//51 10//51
f 31//52 22//52 32//52
f 22//53 5//53 32//53
f 29//54 30//54 9//54
f 29//55 21//55 30//55
f 21//56 4//56 30//56
f 27//57 28//57 8//57
f 27//58 19//58 28//58
f 19//59 3//59 28//59
f 25//60 26//60 7//60
f 25//61 15//61 26//61
f 15//62 2//62 26//62
f 23//63 24//63 11//63
f 23//64 16//64 24//64
f 16//65 6//65 24//65
f 17//66 22//66 6//66
f 17//67 20//67 22//67
f 20//68 5//68 22//68
f 20//69 21//69 5//69
f 20//70 18//70 21//70
f 18//71 4//71 21//71
f 18//72 19//72 4//72
f 18//73 13//73 19//73
f 13//74 3//74 19//74
f 16//75 17//75 6//75
f 16//76 14//76 17//76
f 14//77 1//77 17//77
f 13//78 15//78 3//78
f 13//79 14//79 15//79
f 14//80 2//80 15//80
