# Blender v2.78 (sub 0) OBJ File: 'mountain.blend'
# www.blender.org
mtllib rock-4.mtl
o Icosphere.006
v 0.045747 0.710802 1.772858
v 0.205129 0.839904 1.889908
v 0.060078 0.689472 2.026252
v -0.092405 0.726592 1.848538
v 0.028429 0.829875 1.658925
v 0.213632 0.837681 1.654005
v 0.073419 1.006310 1.968469
v -0.120324 1.026335 1.958647
v -0.094237 1.006640 1.680935
v 0.133918 1.028121 1.611030
v 0.249117 1.044044 1.771401
v 0.118241 1.243679 1.870427
v 0.034439 0.692070 1.898841
v 0.143785 0.745227 1.844085
v 0.010370 0.841014 1.905819
v 0.232148 0.823636 1.773179
v 0.143785 0.745227 1.701631
v -0.057219 0.719517 1.787059
v -0.069334 0.723460 1.912596
v 0.013409 0.747237 1.663155
v -0.050001 0.755305 1.712896
v 0.113922 0.816621 1.609853
v 0.167124 0.962566 1.830996
v 0.253512 0.945465 1.702011
v 0.059368 0.923982 2.006104
v 0.047492 0.908296 1.891382
v -0.214330 0.830329 1.861526
v -0.033277 0.969638 2.014131
v -0.018016 0.915381 1.659194
v -0.112834 0.867141 1.693008
v 0.185837 0.951513 1.647344
v 0.063435 0.915947 1.647960
v 0.189253 1.056969 1.880648
v -0.013953 1.061885 1.963395
v -0.196875 1.052632 1.804479
v -0.018820 1.149672 1.612401
v 0.204377 1.062491 1.657602
v 0.056597 1.151062 1.904878
v 0.203650 1.217510 1.772631
v 0.037132 1.227256 1.842592
v -0.024542 1.107638 1.639170
v 0.143425 1.271846 1.639435
vn 0.3938 -0.9137 -0.1005
vn 0.7489 -0.6103 0.2584
vn -0.1046 -0.9823 -0.1554
vn -0.1194 -0.9522 -0.2811
vn 0.0848 -0.9379 -0.3365
vn 0.9179 0.3622 0.1620
vn 0.9085 -0.0330 -0.4166
vn -0.6248 -0.7578 0.1880
vn -0.4048 -0.2171 -0.8882
vn 0.3969 0.0432 -0.9169
vn 0.2145 0.4761 0.8528
vn 0.1276 0.0853 0.9881
vn -0.5928 -0.6347 -0.4957
vn -0.1358 -0.0707 -0.9882
vn 0.6305 0.1090 -0.7685
vn 0.4338 0.4042 0.8053
vn -0.2405 0.6199 0.7469
vn -0.7109 0.2135 -0.6701
vn 0.0805 0.1123 -0.9904
vn 0.9157 0.2423 -0.3207
vn 0.4485 0.8800 0.1562
vn 0.9176 0.2396 -0.3171
vn 0.5228 0.0785 -0.8489
vn -0.6990 0.7150 0.0110
vn -0.5018 0.5122 0.6970
vn -0.3147 0.5400 0.7806
vn -0.0006 0.8621 -0.5067
vn -0.5388 0.7874 -0.2997
vn -0.5873 0.6975 0.4106
vn -0.3693 0.5298 0.7635
vn -0.1207 0.6096 0.7835
vn 0.2117 0.4136 0.8855
vn 0.7053 -0.2186 0.6744
vn 0.4669 0.4645 0.7525
vn 0.8656 0.2237 0.4479
vn 0.9117 0.2629 -0.3158
vn 0.6263 -0.0326 -0.7789
vn 0.5569 -0.0163 -0.8305
vn -0.1739 -0.2077 -0.9626
vn -0.1327 -0.1946 -0.9719
vn -0.4587 -0.1756 -0.8711
vn -0.7601 0.0452 -0.6483
vn -0.8480 -0.0683 -0.5256
vn -0.8669 0.1867 0.4623
vn -0.2060 0.5044 0.8386
vn 0.2803 0.4168 0.8647
vn 0.1899 0.3812 0.9048
vn 0.6394 -0.5726 0.5130
vn 0.5593 -0.4848 0.6724
vn 0.7698 -0.4290 0.4726
vn 0.1024 -0.3685 -0.9239
vn -0.0959 0.3137 -0.9447
vn -0.4858 0.0868 -0.8698
vn -0.3177 -0.0396 -0.9474
vn -0.1948 -0.2768 -0.9410
vn -0.7874 -0.5052 -0.3531
vn -0.5865 -0.1159 0.8016
vn -0.4907 -0.2698 0.8285
vn -0.6756 -0.1944 0.7112
vn 0.9769 -0.2004 -0.0737
vn 0.8732 -0.4869 -0.0238
vn 0.0812 0.1661 0.9828
vn 0.7543 -0.3551 0.5523
vn 0.8294 0.1662 0.5334
vn 0.9460 -0.2704 -0.1788
vn 0.4191 -0.6455 -0.6385
vn 0.1772 -0.7480 -0.6396
vn -0.4921 0.0449 -0.8694
vn -0.6101 0.0705 -0.7892
vn -0.4347 -0.7938 -0.4254
vn -0.7327 -0.5823 -0.3523
vn -0.1732 -0.9848 0.0142
vn -0.2893 -0.9572 0.0021
vn -0.2847 -0.9579 0.0378
vn 0.7334 -0.6524 -0.1908
vn 0.6637 -0.7480 0.0000
vn 0.3313 -0.9435 0.0000
vn 0.9675 0.1653 -0.1913
vn 0.4365 0.0284 0.8993
vn 0.0692 -0.4706 0.8796
usemtl Material.001
s off
f 1//1 14//1 13//1
f 2//2 14//2 16//2
f 1//3 13//3 18//3
f 1//4 18//4 20//4
f 1//5 20//5 17//5
f 2//6 16//6 23//6
f 3//7 15//7 25//7
f 4//8 19//8 27//8
f 5//9 21//9 29//9
f 6//10 22//10 31//10
f 2//11 23//11 26//11
f 3//12 25//12 28//12
f 4//13 27//13 30//13
f 5//14 29//14 32//14
f 6//15 31//15 24//15
f 7//16 33//16 38//16
f 8//17 34//17 40//17
f 9//18 35//18 41//18
f 10//19 36//19 42//19
f 11//20 37//20 39//20
f 39//21 42//21 12//21
f 39//22 37//22 42//22
f 37//23 10//23 42//23
f 42//24 41//24 12//24
f 42//25 36//25 41//25
f 36//26 9//26 41//26
f 41//27 40//27 12//27
f 41//28 35//28 40//28
f 35//29 8//29 40//29
f 40//30 38//30 12//30
f 40//31 34//31 38//31
f 34//32 7//32 38//32
f 38//33 39//33 12//33
f 38//34 33//34 39//34
f 33//35 11//35 39//35
f 24//36 37//36 11//36
f 24//37 31//37 37//37
f 31//38 10//38 37//38
f 32//39 36//39 10//39
f 32//40 29//40 36//40
f 29//41 9//41 36//41
f 30//42 35//42 9//42
f 30//43 27//43 35//43
f 27//44 8//44 35//44
f 28//45 34//45 8//45
f 28//46 25//46 34//46
f 25//47 7//47 34//47
f 26//48 33//48 7//48
f 26//49 23//49 33//49
f 23//50 11//50 33//50
f 31//51 32//51 10//51
f 31//52 22//52 32//52
f 22//53 5//53 32//53
f 29//54 30//54 9//54
f 29//55 21//55 30//55
f 21//56 4//56 30//56
f 27//57 28//57 8//57
f 27//58 19//58 28//58
f 19//59 3//59 28//59
f 25//60 26//60 7//60
f 25//61 15//61 26//61
f 15//62 2//62 26//62
f 23//63 24//63 11//63
f 23//64 16//64 24//64
f 16//65 6//65 24//65
f 17//66 22//66 6//66
f 17//67 20//67 22//67
f 20//68 5//68 22//68
f 20//69 21//69 5//69
f 20//70 18//70 21//70
f 18//71 4//71 21//71
f 18//72 19//72 4//72
f 18//73 13//73 19//73
f 13//74 3//74 19//74
f 16//75 17//75 6//75
f 16//76 14//76 17//76
f 14//77 1//77 17//77
f 13//78 15//78 3//78
f 13//79 14//79 15//79
f 14//80 2//80 15//80
