# Blender v2.78 (sub 0) OBJ File: 'tube.blend'
# www.blender.org
mtllib tube-poles.mtl
o pole-side.001_Cylinder.004
v -8.926394 2.602172 -1.324226
v 8.759006 2.602175 -1.324229
v -8.926394 2.584316 -1.318425
v 8.759006 2.584320 -1.318427
v -8.926394 2.573281 -1.303236
v 8.759006 2.573284 -1.303238
v -8.926394 2.573281 -1.284461
v 8.759006 2.573284 -1.284464
v -8.926394 2.584316 -1.269272
v 8.759006 2.584320 -1.269275
v -8.926394 2.602172 -1.263471
v 8.759006 2.602175 -1.263473
v -8.926394 2.620028 -1.269272
v 8.759006 2.620031 -1.269275
v -8.926394 2.631063 -1.284461
v 8.759006 2.631067 -1.284464
v -8.926394 2.631063 -1.303236
v 8.759006 2.631067 -1.303238
v -8.926394 2.620028 -1.318425
v 8.759006 2.620031 -1.318427
v -8.926394 2.602172 0.161861
v 8.759006 2.602175 0.161859
v -8.926394 2.584316 0.167663
v 8.759006 2.584320 0.167660
v -8.926394 2.573281 0.182852
v 8.759006 2.573284 0.182849
v -8.926394 2.573281 0.201626
v 8.759006 2.573284 0.201624
v -8.926394 2.584316 0.216815
v 8.759006 2.584320 0.216813
v -8.926394 2.602172 0.222617
v 8.759006 2.602175 0.222614
v -8.926394 2.620028 0.216815
v 8.759006 2.620031 0.216813
v -8.926394 2.631063 0.201626
v 8.759006 2.631067 0.201624
v -8.926394 2.631063 0.182852
v 8.759006 2.631067 0.182849
v -8.926394 2.620028 0.167663
v 8.759006 2.620031 0.167660
vn 0.6437 -0.0000 -0.7653
vn -0.6437 -0.4498 -0.6191
vn -0.6437 0.0000 -0.7653
vn 0.6437 -0.4498 -0.6191
vn -0.6437 -0.7278 -0.2365
vn 0.6437 -0.7278 -0.2365
vn -0.6437 -0.7278 0.2365
vn 0.6437 -0.7278 0.2365
vn -0.6437 -0.4498 0.6191
vn 0.6437 -0.4498 0.6191
vn -0.6437 0.0000 0.7653
vn 0.6437 0.0000 0.7653
vn -0.6437 0.4498 0.6191
vn 0.6437 0.4498 0.6191
vn -0.6437 0.7278 0.2365
vn 0.6437 0.7278 0.2365
vn -0.6437 0.7278 -0.2365
vn 0.6437 0.7278 -0.2365
vn -0.6437 0.4498 -0.6191
vn 0.6437 0.4498 -0.6191
usemtl pole
s 1
f 2//1 3//2 1//3
f 4//4 5//5 3//2
f 6//6 7//7 5//5
f 8//8 9//9 7//7
f 10//10 11//11 9//9
f 12//12 13//13 11//11
f 14//14 15//15 13//13
f 16//16 17//17 15//15
f 18//18 8//8 6//6
f 18//18 19//19 17//17
f 20//20 1//3 19//19
f 7//7 17//17 19//19
f 22//1 23//2 21//3
f 24//4 25//5 23//2
f 26//6 27//7 25//5
f 28//8 29//9 27//7
f 30//10 31//11 29//9
f 32//12 33//13 31//11
f 34//14 35//15 33//13
f 36//16 37//17 35//15
f 38//18 30//10 26//6
f 38//18 39//19 37//17
f 40//20 21//3 39//19
f 27//7 35//15 39//19
f 2//1 4//4 3//2
f 4//4 6//6 5//5
f 6//6 8//8 7//7
f 8//8 10//10 9//9
f 10//10 12//12 11//11
f 12//12 14//14 13//13
f 14//14 16//16 15//15
f 16//16 18//18 17//17
f 6//6 4//4 18//18
f 2//1 20//20 18//18
f 18//18 16//16 14//14
f 14//14 12//12 18//18
f 10//10 8//8 18//18
f 4//4 2//1 18//18
f 18//18 12//12 10//10
f 18//18 20//20 19//19
f 20//20 2//1 1//3
f 19//19 1//3 7//7
f 3//2 5//5 7//7
f 7//7 9//9 15//15
f 11//11 13//13 15//15
f 15//15 17//17 7//7
f 1//3 3//2 7//7
f 9//9 11//11 15//15
f 22//1 24//4 23//2
f 24//4 26//6 25//5
f 26//6 28//8 27//7
f 28//8 30//10 29//9
f 30//10 32//12 31//11
f 32//12 34//14 33//13
f 34//14 36//16 35//15
f 36//16 38//18 37//17
f 26//6 24//4 22//1
f 22//1 40//20 26//6
f 38//18 36//16 34//14
f 34//14 32//12 30//10
f 30//10 28//8 26//6
f 26//6 40//20 38//18
f 38//18 34//14 30//10
f 38//18 40//20 39//19
f 40//20 22//1 21//3
f 39//19 21//3 23//2
f 23//2 25//5 27//7
f 27//7 29//9 31//11
f 31//11 33//13 27//7
f 35//15 37//17 39//19
f 39//19 23//2 27//7
f 27//7 33//13 35//15
o pole-side_Cylinder.001
v -8.779948 2.907837 -1.349708
v -8.747886 -0.409017 -1.339290
v -8.745561 2.907837 -1.336089
v -8.745561 -0.409017 -1.302378
v -8.747886 2.907837 -1.299177
v -8.772126 -0.409017 -1.288856
v -8.772126 2.907837 -1.288856
v -8.796367 -0.409017 -1.299177
v -8.798692 2.907837 -1.302378
v -8.801018 -0.409017 -1.328621
v -8.801018 2.907837 -1.328621
v -8.783710 -0.409017 -1.348485
v -4.839201 2.907837 -1.349708
v -4.813523 -0.409017 -1.343810
v -4.813523 2.907837 -1.343810
v -4.799980 -0.409017 -1.321212
v -4.799980 2.907837 -1.317255
v -4.813523 -0.409017 -1.294657
v -4.813523 2.907837 -1.294657
v -4.839201 -0.409017 -1.288759
v -4.842963 2.907837 -1.289982
v -4.862779 -0.409017 -1.317255
v -4.862779 2.907837 -1.321212
v -4.842963 -0.409017 -1.348485
v -2.126735 -0.409017 -1.349708
v -2.142378 2.907837 -1.349708
v -2.116701 2.907837 -1.343810
v -2.103157 -0.409017 -1.321212
v -2.103157 2.907837 -1.317255
v -2.116701 -0.409017 -1.294657
v -2.142378 -0.409017 -1.288760
v -2.126735 2.907837 -1.288760
v -2.152412 2.907837 -1.294657
v -2.165956 -0.409017 -1.317255
v -2.165956 2.907837 -1.321212
v -2.152412 -0.409017 -1.343810
v 1.798368 2.907837 -1.349708
v 1.830431 -0.409017 -1.339291
v 1.832756 2.907837 -1.336090
v 1.832756 -0.409017 -1.302377
v 1.830431 2.907837 -1.299176
v 1.798368 -0.409017 -1.288759
v 1.794605 2.907837 -1.289982
v 1.774791 -0.409017 -1.317255
v 1.774791 2.907837 -1.321212
v 1.794605 -0.409017 -1.348485
v 4.510836 -0.409017 -1.349707
v 4.495193 2.907837 -1.349707
v 4.535484 -0.409017 -1.311834
v 4.535484 2.907837 -1.326633
v 4.495193 -0.409017 -1.288760
v 4.510836 2.907837 -1.288760
v 4.470543 -0.409017 -1.326633
v 4.470543 2.907837 -1.311834
v 8.451583 -0.409017 -1.349708
v 8.455346 2.907837 -1.348485
v 8.475162 -0.409017 -1.321212
v 8.475162 2.907837 -1.317255
v 8.455346 -0.409017 -1.289982
v 8.451583 2.907837 -1.288760
v 8.425904 -0.409017 -1.294657
v 8.411292 -0.409017 -1.326634
v 8.411292 2.907837 -1.311833
v 8.425904 2.907837 -1.343810
v -8.764304 -0.409017 0.138810
v -8.779948 2.907837 0.138810
v -8.740726 -0.409017 0.167306
v -8.745561 2.907837 0.152428
v -8.760542 -0.409017 0.198535
v -8.747886 2.907837 0.189341
v -8.796367 -0.409017 0.189341
v -8.783710 2.907837 0.198535
v -8.798692 -0.409017 0.152428
v -8.803526 2.907837 0.167306
v -4.839201 2.907837 0.138810
v -4.813523 -0.409017 0.144708
v -4.813523 2.907837 0.144708
v -4.799980 -0.409017 0.167306
v -4.799980 2.907837 0.171262
v -4.813523 -0.409017 0.193860
v -4.813523 2.907837 0.193860
v -4.839201 -0.409017 0.199758
v -4.842963 2.907837 0.198535
v -4.862779 -0.409017 0.171262
v -4.862779 2.907837 0.167306
v -4.842963 -0.409017 0.140033
v -2.126735 -0.409017 0.138810
v -2.142378 2.907837 0.138810
v -2.116701 2.907837 0.144708
v -2.103157 -0.409017 0.167306
v -2.103157 2.907837 0.171262
v -2.116701 -0.409017 0.193860
v -2.142378 -0.409017 0.199758
v -2.126735 2.907837 0.199758
v -2.152412 2.907837 0.193860
v -2.165956 -0.409017 0.171262
v -2.165956 2.907837 0.167306
v -2.152412 -0.409017 0.144708
v 1.798368 2.907837 0.138810
v 1.830431 -0.409017 0.149227
v 1.832756 2.907837 0.152427
v 1.832756 -0.409017 0.186141
v 1.830431 2.907837 0.189341
v 1.798368 -0.409017 0.199758
v 1.794605 2.907837 0.198535
v 1.774791 -0.409017 0.171262
v 1.774791 2.907837 0.167306
v 1.794605 -0.409017 0.140033
v 4.510836 -0.409017 0.138810
v 4.495193 2.907837 0.138810
v 4.535484 -0.409017 0.176684
v 4.535484 2.907837 0.161884
v 4.495193 -0.409017 0.199758
v 4.510836 2.907837 0.199758
v 4.485158 2.907837 0.193860
v 4.470543 -0.409017 0.161884
v 4.471614 2.907837 0.167306
v 8.451583 -0.409017 0.138810
v 8.455346 2.907837 0.140033
v 8.475162 -0.409017 0.167306
v 8.475162 2.907837 0.171262
v 8.455346 -0.409017 0.198535
v 8.451583 2.907837 0.199758
v 8.425904 -0.409017 0.193860
v 8.411292 -0.409017 0.161883
v 8.411292 2.907837 0.176685
v 8.425904 2.907837 0.144708
vn 0.2553 0.6063 0.7531
vn -0.2553 -0.6063 0.7531
vn 0.4810 -0.6235 0.6164
vn -0.2553 0.6063 -0.7531
vn 0.2553 -0.6063 -0.7531
vn -0.4810 -0.6235 -0.6164
vn 0.7948 0.5757 -0.1919
vn 0.7948 -0.5757 0.1919
vn 0.1909 -0.5816 -0.7907
vn 0.1909 0.5816 0.7907
vn -0.1909 -0.5816 0.7907
vn -0.7948 0.5757 0.1919
vn -0.7948 -0.5757 -0.1919
vn -0.1909 0.5816 -0.7907
vn -0.7733 0.5833 0.2485
vn -0.7733 -0.5833 -0.2485
vn -0.4768 -0.6151 0.6279
vn 0.6777 0.5965 -0.4300
vn 0.8010 -0.5965 -0.0504
vn 0.1995 -0.5965 -0.7774
vn 0.6184 0.5965 0.5116
vn 0.2955 -0.5965 0.7462
vn -0.2955 0.5965 0.7462
vn -0.6184 -0.5965 0.5116
vn -0.8010 0.5965 -0.0504
vn -0.6777 -0.5965 -0.4300
vn -0.1995 0.5965 -0.7774
vn 0.6187 -0.5960 -0.5119
vn -0.1621 0.6021 -0.7818
vn 0.6780 0.5960 -0.4302
vn 0.2997 0.5989 0.7426
vn -0.1911 -0.5814 0.7909
vn -0.1449 0.5878 -0.7960
vn -0.7950 -0.5755 -0.1917
vn 0.6934 -0.6021 0.3957
vn 0.6493 0.6060 0.4595
vn 0.0266 -0.6232 0.7815
vn -0.0266 0.6232 0.7815
vn -0.6230 -0.6127 0.4862
vn -0.6549 0.6127 0.4423
vn -0.7515 -0.6232 -0.2163
vn -0.7351 0.6232 -0.2668
vn -0.2363 -0.6060 -0.7595
vn 0.4379 -0.6232 -0.6479
vn -0.2553 0.6060 -0.7534
vn 0.4809 0.6232 -0.6167
vn 0.7898 -0.6127 -0.0271
vn 0.7898 0.6127 0.0271
vn 0.4808 -0.6232 0.6167
vn 0.4379 0.6232 0.6479
vn -0.2553 -0.6060 0.7534
vn -0.3284 0.6021 0.7277
vn -0.8014 -0.5960 0.0505
vn -0.8014 0.5960 -0.0505
vn -0.3284 -0.6021 -0.7277
vn 0.7935 -0.6023 -0.0873
vn 0.4810 0.6235 -0.6164
vn 0.7935 0.6023 0.0873
vn -0.7935 -0.6023 0.0873
vn -0.4810 0.6235 0.6164
vn -0.7935 0.6023 -0.0873
vn 0.6186 -0.5960 -0.5119
vn -0.1996 0.5960 -0.7778
vn 0.6780 -0.5960 0.4302
vn 0.6187 0.5960 0.5119
vn -0.1996 -0.5960 0.7778
vn -0.2957 0.5960 0.7465
vn -0.2957 -0.5960 -0.7465
vn 0.8014 -0.5960 -0.0505
vn 0.3284 0.6021 -0.7277
vn 0.8014 0.5960 0.0505
vn 0.3284 -0.6021 0.7277
vn 0.1451 0.5876 0.7960
vn -0.4768 0.6151 -0.6279
vn 0.1451 -0.5876 -0.7960
vn -0.4812 0.6232 0.6164
vn -0.7937 0.6021 -0.0870
usemtl pole
s 1
f 72//21 71//22 70//23
f 66//24 65//25 76//26
f 90//27 89//28 87//29
f 92//30 91//31 89//28
f 94//32 93//33 91//31
f 88//34 87//29 93//33
f 103//35 102//36 101//37
f 108//38 107//39 105//40
f 110//41 109//42 107//39
f 112//43 111//44 109//42
f 114//45 113//46 111//44
f 106//47 105//40 113//46
f 134//21 133//22 132//23
f 128//24 127//25 138//26
f 152//27 151//28 149//29
f 42//48 41//49 43//50
f 154//51 153//52 151//28
f 150//53 149//29 156//54
f 166//35 165//36 164//37
f 44//55 43//50 45//56
f 46//57 45//56 47//58
f 48//59 47//58 49//60
f 50//61 49//60 51//62
f 52//63 51//62 41//49
f 43//50 51//62 47//58
f 50//61 42//48 46//57
f 54//64 53//65 55//66
f 56//67 55//66 57//68
f 58//69 57//68 59//70
f 60//71 59//70 61//72
f 62//73 61//72 63//74
f 64//75 63//74 53//65
f 59//70 55//66 63//74
f 68//76 67//77 69//78
f 62//73 54//64 58//69
f 66//24 67//77 65//25
f 70//23 69//78 72//21
f 74//79 73//80 75//81
f 72//21 73//80 71//22
f 76//26 75//81 66//24
f 73//80 67//77 75//81
f 78//82 77//83 79//50
f 76//26 68//76 70//23
f 80//84 79//50 81//85
f 82//86 81//85 83//87
f 84//73 83//87 85//74
f 77//83 85//74 83//87
f 86//88 85//74 77//83
f 88//34 92//30 90//27
f 86//88 80//84 82//86
f 88//34 90//27 87//29
f 90//27 92//30 89//28
f 92//30 94//32 91//31
f 87//29 91//31 93//33
f 94//32 88//34 93//33
f 97//89 96//90 98//91
f 99//92 98//91 100//93
f 101//37 100//93 103//35
f 98//91 96//90 104//94
f 95//95 104//94 96//90
f 103//35 104//94 102//36
f 97//89 99//92 101//37
f 106//47 108//38 105//40
f 108//38 110//41 107//39
f 110//41 112//43 109//42
f 112//43 114//45 111//44
f 108//38 114//45 112//43
f 114//45 106//47 113//46
f 113//46 107//39 109//42
f 116//64 115//65 117//66
f 118//67 117//66 119//68
f 120//69 119//68 121//70
f 122//71 121//70 123//72
f 124//73 123//72 125//74
f 126//75 125//74 115//65
f 121//70 117//66 125//74
f 130//76 129//77 131//78
f 124//73 116//64 120//69
f 128//24 129//77 127//25
f 132//23 131//78 134//21
f 136//79 135//80 137//81
f 134//21 135//80 133//22
f 138//26 137//81 128//24
f 135//80 129//77 137//81
f 140//48 139//83 141//50
f 138//26 130//76 132//23
f 142//84 141//50 143//85
f 144//86 143//85 145//87
f 146//73 145//87 147//74
f 139//83 147//74 145//87
f 148//88 147//74 139//83
f 156//54 155//96 157//97
f 148//88 142//84 144//86
f 150//53 152//27 149//29
f 152//27 154//51 151//28
f 154//51 155//96 153//52
f 149//29 153//52 156//54
f 154//51 150//53 155//96
f 157//97 150//53 156//54
f 160//89 159//90 161//91
f 162//92 161//91 163//93
f 164//37 163//93 166//35
f 161//91 159//90 167//94
f 158//95 167//94 159//90
f 166//35 167//94 165//36
f 160//89 162//92 164//37
f 42//48 52//63 41//49
f 44//55 42//48 43//50
f 46//57 44//55 45//56
f 48//59 46//57 47//58
f 50//61 48//59 49//60
f 52//63 50//61 51//62
f 47//58 45//56 43//50
f 43//50 41//49 51//62
f 51//62 49//60 47//58
f 46//57 48//59 50//61
f 50//61 52//63 42//48
f 42//48 44//55 46//57
f 54//64 64//75 53//65
f 56//67 54//64 55//66
f 58//69 56//67 57//68
f 60//71 58//69 59//70
f 62//73 60//71 61//72
f 64//75 62//73 63//74
f 53//65 63//74 55//66
f 61//72 59//70 63//74
f 57//68 55//66 59//70
f 68//76 65//25 67//77
f 58//69 60//71 62//73
f 62//73 64//75 54//64
f 54//64 56//67 58//69
f 70//23 68//76 69//78
f 74//79 71//22 73//80
f 76//26 74//79 75//81
f 66//24 75//81 67//77
f 73//80 72//21 69//78
f 69//78 67//77 73//80
f 78//82 86//88 77//83
f 70//23 71//22 74//79
f 74//79 76//26 70//23
f 65//25 68//76 76//26
f 80//84 78//82 79//50
f 82//86 80//84 81//85
f 84//73 82//86 83//87
f 83//87 81//85 79//50
f 79//50 77//83 83//87
f 86//88 84//73 85//74
f 88//34 94//32 92//30
f 82//86 84//73 86//88
f 86//88 78//82 80//84
f 87//29 89//28 91//31
f 97//89 95//95 96//90
f 99//92 97//89 98//91
f 101//37 99//92 100//93
f 104//94 103//35 100//93
f 100//93 98//91 104//94
f 95//95 102//36 104//94
f 101//37 102//36 95//95
f 95//95 97//89 101//37
f 112//43 110//41 108//38
f 108//38 106//47 114//45
f 109//42 111//44 113//46
f 113//46 105//40 107//39
f 116//64 126//75 115//65
f 118//67 116//64 117//66
f 120//69 118//67 119//68
f 122//71 120//69 121//70
f 124//73 122//71 123//72
f 126//75 124//73 125//74
f 115//65 125//74 117//66
f 123//72 121//70 125//74
f 119//68 117//66 121//70
f 130//76 127//25 129//77
f 120//69 122//71 124//73
f 124//73 126//75 116//64
f 116//64 118//67 120//69
f 132//23 130//76 131//78
f 136//79 133//22 135//80
f 138//26 136//79 137//81
f 128//24 137//81 129//77
f 135//80 134//21 131//78
f 131//78 129//77 135//80
f 140//48 148//88 139//83
f 132//23 133//22 136//79
f 136//79 138//26 132//23
f 127//25 130//76 138//26
f 142//84 140//48 141//50
f 144//86 142//84 143//85
f 146//73 144//86 145//87
f 145//87 143//85 141//50
f 141//50 139//83 145//87
f 148//88 146//73 147//74
f 156//54 153//52 155//96
f 144//86 146//73 148//88
f 148//88 140//48 142//84
f 149//29 151//28 153//52
f 157//97 155//96 150//53
f 154//51 152//27 150//53
f 160//89 158//95 159//90
f 162//92 160//89 161//91
f 164//37 162//92 163//93
f 167//94 166//35 163//93
f 163//93 161//91 167//94
f 158//95 165//36 167//94
f 164//37 165//36 158//95
f 158//95 160//89 164//37
