# Blender v2.78 (sub 0) OBJ File: 'tube.blend'
# www.blender.org
mtllib tube-lights.mtl
o lights_Cube.008
v -4.843503 2.793875 -0.770924
v -4.843503 2.818018 -0.771704
v -8.775815 2.793880 -0.770924
v -8.775815 2.818023 -0.771703
v -8.775815 2.813307 -0.832181
v -4.843503 2.740618 -0.829835
v -8.775815 2.740623 -0.829834
v -4.843503 2.813302 -0.832181
v -4.843503 2.775009 -1.012834
v -4.843503 2.799152 -1.013614
v -8.775815 2.775014 -1.012834
v -8.775815 2.799158 -1.013614
v -8.775815 2.711207 -0.889515
v -8.775815 2.808590 -0.892658
v -4.843503 2.711202 -0.889515
v -4.843503 2.808585 -0.892659
v -8.775815 2.803874 -0.953136
v -4.843503 2.731186 -0.950790
v -8.775815 2.731191 -0.950789
v -4.843503 2.803869 -0.953136
v -4.843503 2.796905 -0.210277
v -4.843503 2.821055 -0.209759
v -8.775815 2.796910 -0.210277
v -8.775815 2.821060 -0.209759
v -8.775815 2.816998 -0.149234
v -4.843503 2.744289 -0.150795
v -8.775815 2.744294 -0.150794
v -4.843503 2.816993 -0.149234
v -4.843503 2.780655 0.031823
v -4.843503 2.804806 0.032341
v -8.775815 2.780660 0.031823
v -8.775815 2.804811 0.032341
v -8.775815 2.715524 -0.090800
v -8.775815 2.812936 -0.088709
v -4.843503 2.715519 -0.090800
v -4.843503 2.812931 -0.088709
v -8.775815 2.808873 -0.028184
v -4.843503 2.736164 -0.029745
v -8.775815 2.736169 -0.029744
v -4.843503 2.808868 -0.028184
v 1.880752 2.793866 -0.770925
v 1.880752 2.818009 -0.771704
v -2.051561 2.793871 -0.770924
v -2.051561 2.818015 -0.771704
v -2.051561 2.813298 -0.832181
v 1.880752 2.740610 -0.829835
v -2.051561 2.740615 -0.829835
v 1.880752 2.813293 -0.832182
v 1.880752 2.775000 -1.012835
v 1.880752 2.799144 -1.013614
v -2.051561 2.775005 -1.012835
v -2.051561 2.799149 -1.013614
v -2.051561 2.711199 -0.889515
v -2.051561 2.808582 -0.892659
v 1.880752 2.711194 -0.889515
v 1.880752 2.808577 -0.892659
v -2.051561 2.803865 -0.953136
v 1.880752 2.731177 -0.950790
v -2.051561 2.731182 -0.950790
v 1.880752 2.803860 -0.953137
v 1.880752 2.796896 -0.210278
v 1.880752 2.821047 -0.209759
v -2.051561 2.796901 -0.210278
v -2.051561 2.821052 -0.209759
v -2.051561 2.816989 -0.149234
v 1.880752 2.744280 -0.150795
v -2.051561 2.744285 -0.150795
v 1.880752 2.816984 -0.149234
v 1.880752 2.780647 0.031822
v 1.880752 2.804797 0.032341
v -2.051561 2.780652 0.031823
v -2.051561 2.804802 0.032341
v -2.051561 2.715516 -0.090800
v -2.051561 2.812927 -0.088709
v 1.880752 2.715511 -0.090800
v 1.880752 2.812922 -0.088709
v -2.051561 2.808865 -0.028184
v 1.880752 2.736155 -0.029745
v -2.051561 2.736160 -0.029745
v 1.880752 2.808860 -0.028184
v 8.605005 2.793857 -0.770925
v 8.605005 2.818001 -0.771704
v 4.672692 2.793862 -0.770925
v 4.672692 2.818006 -0.771704
v 4.672692 2.813290 -0.832182
v 8.605005 2.740601 -0.829836
v 4.672692 2.740606 -0.829835
v 8.605005 2.813284 -0.832182
v 8.605005 2.774992 -1.012835
v 8.605005 2.799135 -1.013615
v 4.672692 2.774997 -1.012835
v 4.672692 2.799140 -1.013614
v 4.672692 2.711190 -0.889515
v 4.672692 2.808573 -0.892659
v 8.605005 2.711185 -0.889516
v 8.605005 2.808568 -0.892660
v 4.672692 2.803857 -0.953137
v 8.605005 2.731169 -0.950791
v 4.672692 2.731174 -0.950790
v 8.605005 2.803852 -0.953137
v 8.605005 2.796888 -0.210278
v 8.605005 2.821038 -0.209760
v 4.672692 2.796893 -0.210278
v 4.672692 2.821043 -0.209760
v 4.672692 2.816981 -0.149235
v 8.605005 2.744272 -0.150796
v 4.672692 2.744277 -0.150795
v 8.605005 2.816976 -0.149235
v 8.605005 2.780638 0.031822
v 8.605005 2.804789 0.032340
v 4.672692 2.780643 0.031822
v 4.672692 2.804794 0.032340
v 4.672692 2.715507 -0.090801
v 4.672692 2.812918 -0.088709
v 8.605005 2.715502 -0.090801
v 8.605005 2.812913 -0.088710
v 4.672692 2.808856 -0.028184
v 8.605005 2.736147 -0.029746
v 4.672692 2.736152 -0.029745
v 8.605005 2.808851 -0.028185
vn 1.0000 0.0000 0.0000
vn -0.0000 -0.0323 -0.9995
vn 0.0000 0.7418 -0.6706
vn -0.0000 -0.9970 0.0778
vn -1.0000 -0.0000 0.0000
vn 0.0000 0.8970 -0.4421
vn 0.0000 0.0323 0.9995
vn 0.0000 0.8168 0.5769
vn 0.0000 0.9507 0.3101
vn 0.0000 -0.0215 0.9998
vn 0.0000 0.7490 0.6626
vn -0.0000 -0.9978 -0.0670
vn 0.0000 0.9017 0.4324
vn -0.0000 0.0215 -0.9998
vn 0.0000 0.8105 -0.5857
vn 0.0000 0.9473 -0.3203
vn -0.0000 -0.9970 0.0777
vn 1.0000 0.0001 0.0000
vn 0.0000 0.9507 0.3100
vn 0.0000 0.7490 0.6625
vn -1.0000 0.0001 0.0000
usemtl sun
s off
f 5//1 3//1 7//1
f 3//2 2//2 1//2
f 3//3 6//3 7//3
f 14//4 8//4 5//4
f 6//5 16//5 15//5
f 1//5 8//5 6//5
f 5//4 2//4 4//4
f 7//6 15//6 13//6
f 14//1 7//1 13//1
f 11//1 17//1 19//1
f 9//7 12//7 11//7
f 18//8 11//8 19//8
f 20//4 14//4 17//4
f 18//5 16//5 20//5
f 9//5 20//5 10//5
f 10//4 17//4 12//4
f 13//9 18//9 19//9
f 19//1 14//1 13//1
f 23//1 25//1 27//1
f 23//10 22//10 24//10
f 26//11 23//11 27//11
f 28//12 34//12 25//12
f 26//5 36//5 28//5
f 21//5 28//5 22//5
f 22//12 25//12 24//12
f 33//13 26//13 27//13
f 27//1 34//1 33//1
f 37//1 31//1 39//1
f 32//14 29//14 31//14
f 31//15 38//15 39//15
f 34//12 40//12 37//12
f 38//5 36//5 35//5
f 29//5 40//5 38//5
f 37//12 30//12 32//12
f 39//16 35//16 33//16
f 34//1 39//1 33//1
f 45//1 43//1 47//1
f 44//2 41//2 43//2
f 43//3 46//3 47//3
f 54//17 48//17 45//17
f 46//5 56//5 55//5
f 41//5 48//5 46//5
f 45//4 42//4 44//4
f 47//6 55//6 53//6
f 54//1 47//1 53//1
f 51//1 57//1 59//1
f 51//7 50//7 52//7
f 59//8 49//8 51//8
f 57//4 56//4 54//4
f 58//5 56//5 60//5
f 49//5 60//5 50//5
f 52//17 60//17 57//17
f 53//9 58//9 59//9
f 59//1 54//1 53//1
f 63//1 65//1 67//1
f 61//10 64//10 63//10
f 67//11 61//11 63//11
f 65//12 76//12 74//12
f 66//5 76//5 68//5
f 61//5 68//5 62//5
f 64//12 68//12 65//12
f 75//13 67//13 73//13
f 67//1 74//1 73//1
f 77//1 71//1 79//1
f 71//14 70//14 69//14
f 71//15 78//15 79//15
f 74//12 80//12 77//12
f 78//5 76//5 75//5
f 69//5 80//5 78//5
f 77//12 70//12 72//12
f 79//16 75//16 73//16
f 74//1 79//1 73//1
f 85//1 83//1 87//1
f 84//2 81//2 83//2
f 87//3 81//3 86//3
f 94//4 88//4 85//4
f 86//5 96//5 95//5
f 81//5 88//5 86//5
f 85//17 82//17 84//17
f 87//6 95//6 93//6
f 94//1 87//1 93//1
f 91//1 97//1 99//1
f 89//7 92//7 91//7
f 98//8 91//8 99//8
f 97//17 96//17 94//17
f 98//5 96//5 100//5
f 89//5 100//5 90//5
f 92//17 100//17 97//17
f 93//9 98//9 99//9
f 99//1 94//1 93//1
f 103//1 105//1 107//1
f 101//10 104//10 103//10
f 107//11 101//11 103//11
f 105//12 116//12 114//12
f 106//5 116//5 108//5
f 101//5 108//5 102//5
f 104//12 108//12 105//12
f 115//13 107//13 113//13
f 107//1 114//1 113//1
f 117//1 111//1 119//1
f 112//14 109//14 111//14
f 111//15 118//15 119//15
f 114//12 120//12 117//12
f 118//5 116//5 115//5
f 109//5 120//5 118//5
f 117//12 110//12 112//12
f 119//16 115//16 113//16
f 114//1 119//1 113//1
f 5//1 4//1 3//1
f 3//2 4//2 2//2
f 3//3 1//3 6//3
f 14//17 16//17 8//17
f 6//5 8//5 16//5
f 1//5 2//5 8//5
f 5//4 8//4 2//4
f 7//6 6//6 15//6
f 14//1 5//1 7//1
f 11//18 12//18 17//18
f 9//7 10//7 12//7
f 18//8 9//8 11//8
f 20//4 16//4 14//4
f 18//5 15//5 16//5
f 9//5 18//5 20//5
f 10//17 20//17 17//17
f 13//19 15//19 18//19
f 19//1 17//1 14//1
f 23//1 24//1 25//1
f 23//10 21//10 22//10
f 26//11 21//11 23//11
f 28//12 36//12 34//12
f 26//5 35//5 36//5
f 21//5 26//5 28//5
f 22//12 28//12 25//12
f 33//13 35//13 26//13
f 27//1 25//1 34//1
f 37//1 32//1 31//1
f 32//14 30//14 29//14
f 31//15 29//15 38//15
f 34//12 36//12 40//12
f 38//5 40//5 36//5
f 29//5 30//5 40//5
f 37//12 40//12 30//12
f 39//16 38//16 35//16
f 34//1 37//1 39//1
f 45//1 44//1 43//1
f 44//2 42//2 41//2
f 43//3 41//3 46//3
f 54//4 56//4 48//4
f 46//5 48//5 56//5
f 41//5 42//5 48//5
f 45//4 48//4 42//4
f 47//6 46//6 55//6
f 54//1 45//1 47//1
f 51//1 52//1 57//1
f 51//7 49//7 50//7
f 59//8 58//8 49//8
f 57//4 60//4 56//4
f 58//5 55//5 56//5
f 49//5 58//5 60//5
f 52//4 50//4 60//4
f 53//9 55//9 58//9
f 59//1 57//1 54//1
f 63//1 64//1 65//1
f 61//10 62//10 64//10
f 67//20 66//20 61//20
f 65//12 68//12 76//12
f 66//5 75//5 76//5
f 61//5 66//5 68//5
f 64//12 62//12 68//12
f 75//13 66//13 67//13
f 67//1 65//1 74//1
f 77//1 72//1 71//1
f 71//14 72//14 70//14
f 71//15 69//15 78//15
f 74//12 76//12 80//12
f 78//5 80//5 76//5
f 69//5 70//5 80//5
f 77//12 80//12 70//12
f 79//16 78//16 75//16
f 74//1 77//1 79//1
f 85//1 84//1 83//1
f 84//2 82//2 81//2
f 87//3 83//3 81//3
f 94//4 96//4 88//4
f 86//5 88//5 96//5
f 81//21 82//21 88//21
f 85//4 88//4 82//4
f 87//6 86//6 95//6
f 94//1 85//1 87//1
f 91//1 92//1 97//1
f 89//7 90//7 92//7
f 98//8 89//8 91//8
f 97//4 100//4 96//4
f 98//5 95//5 96//5
f 89//5 98//5 100//5
f 92//4 90//4 100//4
f 93//9 95//9 98//9
f 99//1 97//1 94//1
f 103//1 104//1 105//1
f 101//10 102//10 104//10
f 107//11 106//11 101//11
f 105//12 108//12 116//12
f 106//5 115//5 116//5
f 101//5 106//5 108//5
f 104//12 102//12 108//12
f 115//13 106//13 107//13
f 107//1 105//1 114//1
f 117//1 112//1 111//1
f 112//14 110//14 109//14
f 111//15 109//15 118//15
f 114//12 116//12 120//12
f 118//5 120//5 116//5
f 109//5 110//5 120//5
f 117//12 120//12 110//12
f 119//16 118//16 115//16
f 114//1 117//1 119//1
