# Blender v2.78 (sub 0) OBJ File: 'lunar.blend'
# www.blender.org
mtllib console-front.mtl
o Control_Panel.001_Cube.003
v 0.457621 1.146089 4.116264
v 0.463312 1.530191 4.513626
v 0.457621 1.016051 4.241962
v 0.463312 1.400153 4.639325
v 0.618485 1.017762 4.243732
v 0.618485 1.400153 4.639325
v 0.618485 1.147799 4.118034
v 0.618485 1.530191 4.513627
v 0.220233 0.945800 3.909060
v 0.177591 1.530191 4.513626
v 0.220233 0.815762 4.034759
v 0.177591 1.400153 4.639324
v 0.175870 0.945174 3.908413
v 0.174301 1.510309 4.493058
v 0.175870 0.815136 4.034111
v 0.167898 1.373856 4.612119
v -0.417336 0.948485 3.911838
v -0.133093 1.506937 4.489569
v -0.417336 0.818447 4.037536
v -0.133093 1.376900 4.615267
v -0.092023 1.318981 4.555350
v -0.147900 1.273895 4.508707
v -0.417336 0.905139 3.953737
v -0.417336 0.861793 3.995637
v -0.133093 1.420245 4.573368
v -0.133093 1.463591 4.531468
v -0.092023 1.449019 4.429652
v -0.147900 1.403933 4.383009
v -0.147900 1.317241 4.466808
v -0.147900 1.360587 4.424908
v -0.092023 1.362327 4.513450
v -0.092023 1.405673 4.471551
v -0.143654 1.366387 4.604392
v -0.143654 1.496424 4.478693
v -0.143654 1.409733 4.562492
v -0.143654 1.453078 4.520593
v -0.158423 1.280324 4.515358
v -0.158422 1.410362 4.389660
v -0.158422 1.323670 4.473459
v -0.158422 1.367016 4.431560
v -0.364441 1.061241 4.288712
v -0.364441 1.191279 4.163013
v -0.364441 1.104587 4.246812
v -0.364441 1.147933 4.204913
v 0.746424 1.146089 4.116264
v 0.740732 1.530191 4.513627
v 0.746424 1.016051 4.241962
v 0.740732 1.400153 4.639325
v 0.585559 1.017762 4.243732
v 0.585559 1.400153 4.639325
v 0.585560 1.147799 4.118034
v 0.585559 1.530191 4.513627
v 0.983812 0.945800 3.909061
v 1.026453 1.530191 4.513627
v 0.983812 0.815762 4.034759
v 1.026453 1.400153 4.639325
v 1.028175 0.945174 3.908414
v 1.029744 1.510309 4.493059
v 1.028175 0.815136 4.034112
v 1.036146 1.373856 4.612120
v 1.621380 0.948485 3.911839
v 1.337137 1.506937 4.489570
v 1.621380 0.818447 4.037538
v 1.337137 1.376899 4.615269
v 1.296067 1.318981 4.555351
v 1.351944 1.273895 4.508708
v 1.621380 0.905139 3.953739
v 1.621380 0.861793 3.995638
v 1.337137 1.420245 4.573369
v 1.337137 1.463591 4.531470
v 1.296067 1.449019 4.429653
v 1.351944 1.403933 4.383010
v 1.351944 1.317241 4.466809
v 1.351944 1.360587 4.424910
v 1.296067 1.362327 4.513452
v 1.296067 1.405673 4.471552
v 1.347698 1.366387 4.604393
v 1.347698 1.496424 4.478694
v 1.347698 1.409732 4.562493
v 1.347698 1.453078 4.520594
v 1.362467 1.280324 4.515359
v 1.362467 1.410362 4.389661
v 1.362467 1.323670 4.473460
v 1.362467 1.367016 4.431561
v 1.568485 1.061241 4.288713
v 1.568485 1.191279 4.163015
v 1.568485 1.104587 4.246814
v 1.568485 1.147933 4.204915
vn -0.0000 -0.7190 0.6950
vn 0.0000 0.7190 -0.6950
vn 0.0153 -0.6949 -0.7189
vn -0.0000 0.6950 0.7190
vn 0.0001 0.7190 -0.6950
vn 0.7719 -0.4419 -0.4571
vn -0.0058 0.6576 0.7533
vn 0.0203 -0.6949 -0.7189
vn -0.9685 0.1880 0.1634
vn -0.8199 0.3979 0.4116
vn -0.0080 -0.6950 -0.7190
vn 0.6603 0.5220 0.5400
vn -0.7577 0.4536 0.4692
vn 0.6602 0.5220 0.5400
vn 0.0000 0.5848 0.8112
vn -0.7973 -0.4195 -0.4339
vn -0.7973 -0.4195 -0.4340
vn -0.8371 0.3802 0.3934
vn -0.8371 0.3802 0.3933
vn -0.9887 0.1040 0.1076
vn -0.0153 -0.6949 -0.7189
vn -0.7718 -0.4419 -0.4571
vn -0.0146 0.6949 0.7189
vn -0.0203 -0.6949 -0.7189
vn 0.9934 0.0794 0.0822
vn -0.0001 -0.7190 0.6950
vn 0.8199 0.3979 0.4116
vn 0.0080 -0.6950 -0.7190
vn -0.6602 0.5220 0.5400
vn 0.7577 0.4536 0.4692
vn -0.6603 0.5220 0.5400
vn 0.9923 0.1240 0.0000
vn 0.7973 -0.4195 -0.4340
vn 0.8371 0.3802 0.3934
vn 0.9887 0.1040 0.1076
vn 0.7718 -0.4419 -0.4571
vn 0.0145 0.6949 0.7189
vn -0.0158 0.6949 0.7189
vn 0.0146 0.6949 0.7189
vn -0.9934 0.0794 0.0822
vn -0.9983 -0.0390 -0.0433
vn 0.0058 0.6576 0.7533
vn -0.0145 0.6949 0.7189
vn 0.0158 0.6949 0.7189
vn 0.9685 0.1880 0.1634
vn -0.9963 0.0000 -0.0864
vn 0.7973 -0.4195 -0.4339
vn 0.8371 0.3802 0.3933
vn 0.9887 0.1041 0.1076
usemtl metal
s off
f 5//1 4//1 3//1
f 1//2 10//2 2//2
f 5//3 1//3 7//3
f 4//4 8//4 2//4
f 2//2 7//2 1//2
f 9//5 14//5 10//5
f 3//6 9//6 1//6
f 4//4 10//4 12//4
f 3//1 12//1 11//1
f 14//7 26//7 16//7
f 9//8 15//8 13//8
f 12//9 14//9 16//9
f 11//1 16//1 15//1
f 36//10 18//10 34//10
f 16//1 22//1 15//1
f 13//2 28//2 14//2
f 15//11 24//11 23//11
f 30//12 38//12 40//12
f 30//13 27//13 28//13
f 37//14 29//14 39//14
f 29//14 40//14 39//14
f 22//13 31//13 29//13
f 29//13 32//13 30//13
f 33//10 25//10 35//10
f 35//10 26//10 36//10
f 32//15 21//15 27//15
f 35//16 32//16 31//16
f 21//17 35//17 31//17
f 36//17 27//17 32//17
f 39//18 44//18 43//18
f 41//18 39//18 43//18
f 44//19 38//19 42//19
f 23//20 42//20 17//20
f 19//20 43//20 24//20
f 24//20 44//20 23//20
f 49//1 48//1 50//1
f 54//2 45//2 46//2
f 51//21 47//21 49//21
f 48//4 52//4 50//4
f 51//2 46//2 45//2
f 58//2 53//2 54//2
f 53//22 47//22 45//22
f 56//4 46//4 48//4
f 47//1 56//1 48//1
f 69//23 70//23 60//23
f 57//24 55//24 53//24
f 56//25 58//25 54//25
f 55//26 60//26 56//26
f 80//27 62//27 70//27
f 66//1 60//1 59//1
f 58//2 72//2 57//2
f 67//28 68//28 59//28
f 84//29 72//29 74//29
f 74//30 71//30 76//30
f 83//29 66//29 81//29
f 84//31 73//31 83//31
f 66//30 75//30 65//30
f 74//30 75//30 73//30
f 77//27 69//27 64//27
f 79//27 70//27 69//27
f 76//32 65//32 75//32
f 76//33 79//33 75//33
f 75//33 77//33 65//33
f 76//33 78//33 80//33
f 88//34 83//34 87//34
f 85//34 83//34 81//34
f 86//34 84//34 88//34
f 67//35 86//35 88//35
f 63//35 87//35 85//35
f 68//35 88//35 87//35
f 5//1 6//1 4//1
f 1//2 9//2 10//2
f 5//3 3//3 1//3
f 4//4 6//4 8//4
f 2//2 8//2 7//2
f 9//2 13//2 14//2
f 3//36 11//36 9//36
f 4//4 2//4 10//4
f 3//1 4//1 12//1
f 20//37 16//37 25//37
f 14//38 18//38 26//38
f 25//39 16//39 26//39
f 9//8 11//8 15//8
f 12//40 10//40 14//40
f 11//1 12//1 16//1
f 36//10 26//10 18//10
f 19//1 15//1 41//1
f 16//1 20//1 21//1
f 20//1 33//1 21//1
f 41//1 15//1 22//1
f 22//1 37//1 41//1
f 16//1 21//1 22//1
f 14//2 28//2 27//2
f 17//2 42//2 13//2
f 42//2 38//2 28//2
f 34//2 18//2 27//2
f 42//2 28//2 13//2
f 27//2 18//2 14//2
f 17//11 13//11 23//11
f 15//11 19//11 24//11
f 23//11 13//11 15//11
f 30//14 28//14 38//14
f 30//13 32//13 27//13
f 37//14 22//14 29//14
f 29//14 30//14 40//14
f 22//13 21//13 31//13
f 29//13 31//13 32//13
f 33//10 20//10 25//10
f 35//10 25//10 26//10
f 32//41 31//41 21//41
f 35//16 36//16 32//16
f 21//17 33//17 35//17
f 36//17 34//17 27//17
f 39//18 40//18 44//18
f 41//18 37//18 39//18
f 44//18 40//18 38//18
f 23//20 44//20 42//20
f 19//20 41//20 43//20
f 24//20 43//20 44//20
f 49//1 47//1 48//1
f 54//2 53//2 45//2
f 51//21 45//21 47//21
f 48//4 46//4 52//4
f 51//2 52//2 46//2
f 58//2 57//2 53//2
f 53//22 55//22 47//22
f 56//4 54//4 46//4
f 47//1 55//1 56//1
f 58//42 60//42 70//42
f 64//43 69//43 60//43
f 70//44 62//44 58//44
f 57//24 59//24 55//24
f 56//45 60//45 58//45
f 55//1 59//1 60//1
f 80//27 78//27 62//27
f 60//1 66//1 65//1
f 63//1 85//1 59//1
f 85//1 81//1 66//1
f 77//1 64//1 65//1
f 85//1 66//1 59//1
f 65//1 64//1 60//1
f 58//2 62//2 71//2
f 62//2 78//2 71//2
f 61//2 57//2 86//2
f 82//2 86//2 72//2
f 58//2 71//2 72//2
f 72//2 86//2 57//2
f 59//28 57//28 67//28
f 61//28 67//28 57//28
f 68//28 63//28 59//28
f 84//29 82//29 72//29
f 74//30 72//30 71//30
f 83//29 73//29 66//29
f 84//29 74//29 73//29
f 66//30 73//30 75//30
f 74//30 76//30 75//30
f 77//27 79//27 69//27
f 79//27 80//27 70//27
f 76//46 71//46 65//46
f 76//47 80//47 79//47
f 75//33 79//33 77//33
f 76//33 71//33 78//33
f 88//48 84//48 83//48
f 85//34 87//34 83//34
f 86//34 82//34 84//34
f 67//35 61//35 86//35
f 63//49 68//49 87//49
f 68//35 67//35 88//35
