# Blender v2.78 (sub 0) OBJ File: 'lunar.blend'
# www.blender.org
mtllib lander-2.mtl
o Plane
v 0.912568 -0.221036 1.954630
v 0.908247 -0.219405 -0.364258
v 0.556610 -0.219045 -1.864300
v 1.044617 0.572505 2.153107
v 1.037070 0.572009 -0.360876
v 0.480592 0.551689 -2.107071
v 0.441067 -0.154535 -3.690504
v 0.478125 0.385002 -3.371245
v 0.879969 -0.218611 -0.447757
v 1.000380 0.570010 -0.391463
v 0.449545 0.539949 -2.108512
v 0.089479 0.538670 -2.113883
v 0.196541 0.378974 -3.367400
v 0.063590 0.378974 -3.367400
v 0.526777 0.493562 -2.536957
v 0.500890 0.438507 -2.959639
v 0.231059 0.483616 -2.536566
v 0.213800 0.428562 -2.959247
v 0.080850 0.483616 -2.536565
v 0.072220 0.428562 -2.959247
v 0.530732 1.860504 2.204520
v 0.389519 1.860214 2.199901
v 0.464474 1.860065 -0.336464
v 0.528752 1.846879 -0.303364
v 0.531263 1.844535 -0.241010
v 0.464947 1.859358 -0.291918
v 0.908713 -0.218282 1.312275
v 1.035738 0.572186 1.549843
v 0.531235 1.851683 1.661829
v 0.458475 1.848324 1.760456
v 0.501623 0.576795 2.142337
v -0.022929 1.884421 -0.323487
v -0.046531 1.883886 -0.341412
v 0.009887 1.857958 2.048394
v 0.104406 1.848322 1.192393
v 0.027402 0.575715 2.142320
v -1.051281 -0.221036 1.954631
v -1.046963 -0.219405 -0.364257
v -0.069356 -0.217462 1.950730
v -0.069358 -0.210263 -0.370295
v -0.695328 -0.219045 -1.864299
v -0.069359 -0.210270 -1.868012
v -1.183330 0.572505 2.153109
v -1.175786 0.572009 -0.360874
v -0.069356 0.575067 2.142126
v -0.619310 0.551689 -2.107070
v -0.069359 0.538670 -2.113883
v -0.579788 -0.154535 -3.690503
v -0.069360 -0.151800 -3.686057
v -0.616845 0.385002 -3.371244
v -0.069360 0.378974 -3.367400
v -1.018685 -0.218611 -0.447755
v -0.069358 -0.210263 -0.456068
v -1.139095 0.570010 -0.391462
v -0.588263 0.539949 -2.108511
v -0.228198 0.538670 -2.113883
v -0.335261 0.378974 -3.367400
v -0.202310 0.378974 -3.367400
v -0.665495 0.493562 -2.536956
v -0.639610 0.438507 -2.959638
v -0.069359 0.483616 -2.536565
v -0.069360 0.428562 -2.959247
v -0.369778 0.483616 -2.536565
v -0.352519 0.428562 -2.959247
v -0.219568 0.483616 -2.536565
v -0.210939 0.428562 -2.959247
v -0.669445 1.860504 2.204521
v -0.528231 1.860214 2.199902
v -0.603190 1.860065 -0.336463
v -0.667468 1.846879 -0.303364
v -0.669979 1.844535 -0.241009
v -0.603663 1.859358 -0.291917
v -1.047427 -0.218282 1.312276
v -0.069357 -0.210263 1.312276
v -1.174452 0.572186 1.549845
v -0.669949 1.851683 1.661830
v -0.597189 1.848324 1.760457
v -0.069356 1.855009 2.021274
v -0.069357 1.848323 1.161916
v -0.069358 1.885555 -0.341208
v -0.069358 1.886097 -0.323465
v -0.640336 0.576795 2.142338
v -0.115787 1.884421 -0.323487
v -0.092184 1.883886 -0.341412
v -0.148600 1.857958 2.048394
v -0.243120 1.848322 1.192393
v -0.166114 0.575715 2.142320
v 0.930643 -0.244263 1.971650
v 0.930642 -0.244263 -0.370296
v 0.578983 -0.244263 -1.868711
v 1.069737 0.572384 2.176018
v 1.069736 0.572384 -0.370296
v 0.505130 0.572385 -2.118275
v 0.459158 -0.168244 -3.715816
v 0.498980 0.407223 -3.386320
v 0.900677 -0.244263 -0.456068
v 1.031808 0.572384 -0.404212
v 0.452476 0.572385 -2.118275
v 0.089479 0.572385 -2.118275
v 0.196541 0.407223 -3.386320
v 0.063590 0.407223 -3.386320
v 0.550756 0.517331 -2.540957
v 0.524868 0.462277 -2.963639
v 0.231059 0.517331 -2.540957
v 0.213800 0.462277 -2.963638
v 0.080850 0.517331 -2.540956
v 0.072220 0.462277 -2.963638
v 0.545978 1.882619 2.225363
v 0.387139 1.882619 2.225363
v 0.470830 1.892380 -0.344906
v 0.545978 1.874320 -0.313670
v 0.545978 1.874917 -0.245056
v 0.469993 1.892977 -0.292395
v 0.930643 -0.244263 1.312275
v 1.069737 0.572384 1.549842
v 0.545978 1.882320 1.661846
v 0.458949 1.882320 1.760447
v 0.500190 0.572384 2.176019
v -0.021749 1.918395 -0.324066
v -0.044902 1.917798 -0.343229
v 0.005756 1.882619 2.071431
v 0.104463 1.882320 1.192687
v 0.024357 0.572384 2.176019
v -1.069356 -0.244263 1.971651
v -1.069358 -0.244263 -0.370295
v -0.069356 -0.244263 1.971650
v -0.069358 -0.244263 -0.370295
v -0.717701 -0.244263 -1.868710
v -0.069359 -0.244263 -1.868710
v -1.208450 0.572384 2.176020
v -1.208451 0.572384 -0.370295
v -0.069356 0.572384 2.176019
v -0.643848 0.572385 -2.118274
v -0.069359 0.572385 -2.118275
v -0.597879 -0.168244 -3.715815
v -0.069360 -0.168244 -3.715815
v -0.637700 0.407223 -3.386319
v -0.069360 0.407223 -3.386320
v -1.039393 -0.244263 -0.456067
v -0.069358 -0.244263 -0.456068
v -1.170524 0.572384 -0.404210
v -0.591195 0.572385 -2.118274
v -0.228198 0.572385 -2.118275
v -0.335261 0.407223 -3.386320
v -0.202310 0.407223 -3.386320
v -0.689475 0.517331 -2.540956
v -0.663587 0.462277 -2.963638
v -0.069359 0.517331 -2.540956
v -0.069360 0.462277 -2.963638
v -0.369778 0.517331 -2.540956
v -0.352519 0.462277 -2.963638
v -0.219568 0.517331 -2.540956
v -0.210939 0.462277 -2.963638
v -0.684690 1.882619 2.225364
v -0.525852 1.882619 2.225364
v -0.609546 1.892380 -0.344905
v -0.684694 1.874320 -0.313670
v -0.684694 1.874917 -0.245055
v -0.608709 1.892977 -0.292394
v -1.069357 -0.244263 1.312276
v -0.069357 -0.244263 1.312276
v -1.208451 0.572384 1.549844
v -0.684691 1.882320 1.661847
v -0.597662 1.882320 1.760448
v -0.069356 1.882619 2.041114
v -0.069357 1.882320 1.162370
v -0.069358 1.919494 -0.343229
v -0.069358 1.920091 -0.324061
v -0.638903 0.572384 2.176019
v -0.116967 1.918395 -0.324066
v -0.093814 1.917798 -0.343229
v -0.144468 1.882619 2.071431
v -0.243177 1.882320 1.192687
v -0.163070 0.572384 2.176019
vn 0.0094 1.0000 -0.0000
vn 0.0140 0.9999 -0.0000
vn 0.0056 0.9995 0.0321
vn 0.0047 0.2313 -0.9729
vn -0.9399 0.1207 0.3195
vn -0.9876 0.1567 0.0066
vn 0.0047 -0.5164 0.8563
vn -0.9981 0.0142 0.0593
vn 0.0000 -0.9927 0.1206
vn -0.9570 -0.0030 0.2900
vn 0.0088 1.0000 -0.0000
vn 0.0345 -0.9913 0.1270
vn 0.3424 -0.9255 0.1619
vn 0.0335 -0.9913 0.1271
vn 0.0016 -0.9916 0.1297
vn 0.0000 -0.9916 0.1292
vn 0.2661 -0.7741 0.5744
vn 0.0012 -0.9996 0.0272
vn -0.1943 -0.9809 -0.0135
vn -0.5993 -0.3078 0.7390
vn -0.9870 0.1607 0.0002
vn 0.0082 0.9999 0.0113
vn 0.0390 -0.9992 -0.0052
vn -0.9287 -0.3707 0.0052
vn -0.0014 -1.0000 0.0078
vn -0.0726 -0.9969 0.0305
vn 0.0202 0.0479 -0.9986
vn 0.3253 -0.0647 -0.9434
vn -0.0473 -0.9946 0.0919
vn 0.3703 -0.0628 -0.9268
vn -0.0153 -0.9998 0.0096
vn -0.0361 -0.9990 -0.0254
vn -0.0082 1.0000 -0.0007
vn -0.0088 1.0000 -0.0023
vn -0.0138 0.9993 0.0344
vn 0.0005 0.2349 -0.9720
vn 0.9399 0.1207 0.3195
vn 0.9876 0.1567 0.0066
vn 0.0000 -0.5147 0.8574
vn 0.9977 0.0219 0.0639
vn 0.9664 0.1318 0.2206
vn -0.0093 0.9999 0.0064
vn -0.0345 -0.9913 0.1270
vn -0.3424 -0.9255 0.1619
vn -0.0335 -0.9913 0.1271
vn -0.0016 -0.9916 0.1297
vn -0.2660 -0.7741 0.5744
vn -0.0681 -0.9975 0.0163
vn 0.1943 -0.9809 -0.0135
vn 0.5993 -0.3078 0.7390
vn 0.9870 0.1607 0.0002
vn -0.0036 1.0000 0.0043
vn 0.2208 -0.9753 0.0037
vn 0.9298 -0.3678 0.0139
vn -0.0321 -0.9994 0.0148
vn 0.0359 -0.9964 0.0771
vn -0.0326 0.0476 -0.9983
vn -0.3253 -0.0647 -0.9434
vn 0.0503 -0.9986 -0.0153
vn 0.0001 0.0448 -0.9990
vn 0.0046 -0.9996 0.0263
vn -0.0042 -0.9997 -0.0242
vn 0.0000 -1.0000 -0.0000
vn -0.0000 -0.9992 -0.0411
vn 0.0000 -0.2428 0.9701
vn 0.9361 -0.1295 -0.3270
vn 0.9858 -0.1679 0.0000
vn 0.0000 0.4969 -0.8678
vn 0.9975 -0.0255 -0.0658
vn 0.0000 0.9916 -0.1292
vn 0.9653 -0.1410 -0.2198
vn -0.0000 0.8022 -0.5971
vn -0.0006 1.0000 -0.0005
vn 0.2365 0.9716 -0.0073
vn 0.6312 0.3217 -0.7058
vn 0.2335 0.9724 -0.0038
vn 0.9285 0.3713 0.0000
vn 0.0001 1.0000 -0.0003
vn 0.0355 0.9966 -0.0739
vn 0.0000 -0.0376 0.9993
vn 0.0000 0.0796 0.9968
vn 0.0523 0.9986 -0.0105
vn 0.0002 1.0000 -0.0006
vn -0.0042 0.9997 0.0241
vn -0.9361 -0.1295 -0.3270
vn -0.9858 -0.1679 0.0000
vn -0.9981 -0.0152 -0.0591
vn -0.9559 -0.0033 -0.2937
vn -0.0000 1.0000 -0.0006
vn -0.2365 0.9716 -0.0073
vn -0.6312 0.3217 -0.7058
vn -0.0059 1.0000 0.0052
vn -0.9286 0.3712 -0.0002
vn -0.0001 1.0000 -0.0003
vn -0.0692 0.9971 -0.0311
vn 0.3726 0.0950 0.9231
vn -0.0487 0.9948 -0.0899
vn 0.3734 0.0685 0.9251
vn -0.0005 1.0000 -0.0003
vn -0.0356 0.9990 0.0254
vn -0.0115 0.9999 -0.0000
vn 0.0000 0.1292 0.9916
vn -0.5850 0.7909 0.1797
vn -0.0152 0.1291 0.9915
vn -0.9960 0.0756 -0.0479
vn 0.8559 -0.4284 0.2897
vn -0.9889 0.1484 -0.0046
vn 0.2504 0.0076 0.9681
vn -0.3702 -0.0728 -0.9261
vn 0.9011 -0.4336 0.0016
vn -0.0005 0.0870 -0.9962
vn 0.8482 -0.0119 -0.5296
vn -0.0155 -0.2499 -0.9682
vn -0.0636 0.0192 0.9978
vn -0.0128 -0.0529 -0.9985
vn 0.9965 -0.0009 -0.0837
vn 0.0058 1.0000 -0.0001
vn 0.0709 0.9974 0.0108
vn 0.0000 0.2882 0.9576
vn 0.9802 0.1636 -0.1117
vn -0.6902 -0.5964 0.4098
vn 0.9999 0.0139 -0.0031
vn -0.2768 0.0195 0.9607
vn 0.4048 -0.0877 -0.9102
vn -0.9001 -0.4357 0.0017
vn 0.0959 0.0467 -0.9943
vn -0.8486 0.0031 -0.5290
vn -0.0072 -0.0538 -0.9985
vn 0.0630 0.0236 0.9977
vn 0.0041 -0.0595 -0.9982
vn -0.9958 -0.0360 -0.0837
vn 0.0082 1.0000 -0.0007
vn 0.0088 1.0000 -0.0023
vn 0.0138 0.9993 0.0344
vn 0.0211 0.2393 -0.9707
vn 0.0004 0.2348 -0.9721
vn -0.0005 0.2349 -0.9720
vn -0.6403 0.1010 0.7615
vn -0.9869 0.1606 0.0144
vn 0.0227 -0.5103 0.8597
vn -0.9977 0.0219 0.0639
vn -0.9881 -0.1255 -0.0892
vn -0.9980 0.0389 0.0501
vn -0.9664 0.1318 0.2206
vn 0.0093 0.9999 0.0064
vn 0.0229 -0.9926 0.1196
vn 0.0335 -0.9930 0.1136
vn 0.0345 -0.9912 0.1277
vn -0.4254 -0.7297 0.5353
vn 0.0681 -0.9975 0.0163
vn -0.1969 -0.9800 -0.0289
vn -0.9372 -0.3479 0.0247
vn -0.9873 0.1589 -0.0007
vn 0.0036 1.0000 0.0043
vn -0.2208 -0.9753 0.0037
vn -0.9298 -0.3678 0.0139
vn 0.0321 -0.9994 0.0148
vn -0.0359 -0.9964 0.0771
vn 0.0326 0.0476 -0.9983
vn 0.0026 -0.0940 -0.9956
vn -0.0503 -0.9986 -0.0153
vn -0.0001 0.0448 -0.9990
vn -0.0046 -0.9996 0.0263
vn 0.0042 -0.9997 -0.0242
vn -0.0094 1.0000 0.0000
vn -0.0140 0.9999 -0.0000
vn -0.0056 0.9995 0.0321
vn -0.0047 0.2313 -0.9729
vn -0.0211 0.2393 -0.9707
vn -0.0004 0.2348 -0.9721
vn 0.6403 0.1010 0.7615
vn 0.9869 0.1606 0.0144
vn -0.0047 -0.5164 0.8563
vn -0.0227 -0.5103 0.8597
vn 0.9881 -0.1255 -0.0892
vn 0.9980 0.0389 0.0501
vn 0.9981 0.0142 0.0593
vn 0.9570 -0.0030 0.2900
vn -0.0088 1.0000 -0.0000
vn -0.0229 -0.9926 0.1196
vn -0.0335 -0.9930 0.1136
vn -0.0345 -0.9912 0.1277
vn 0.4254 -0.7297 0.5353
vn -0.0012 -0.9996 0.0272
vn 0.1969 -0.9800 -0.0289
vn 0.9372 -0.3479 0.0247
vn 0.9873 0.1589 -0.0007
vn -0.0082 0.9999 0.0113
vn -0.0390 -0.9992 -0.0052
vn 0.9287 -0.3707 0.0052
vn 0.0014 -1.0000 0.0078
vn 0.0726 -0.9969 0.0305
vn -0.0202 0.0479 -0.9986
vn -0.0026 -0.0940 -0.9956
vn 0.0473 -0.9946 0.0919
vn -0.3703 -0.0628 -0.9268
vn 0.0153 -0.9998 0.0096
vn 0.0361 -0.9990 -0.0254
vn 0.6623 -0.1128 -0.7407
vn 0.9889 0.1174 0.0915
vn 0.9977 -0.0368 -0.0563
vn 0.9981 -0.0152 -0.0592
vn 0.9559 -0.0033 -0.2937
vn 0.4025 0.7380 -0.5416
vn 0.2362 0.9717 -0.0085
vn 0.9368 0.3498 -0.0030
vn 0.0059 1.0000 0.0052
vn 0.9286 0.3712 -0.0002
vn 0.0692 0.9971 -0.0311
vn -0.3726 0.0950 0.9231
vn 0.0487 0.9948 -0.0899
vn -0.3734 0.0685 0.9251
vn 0.0005 1.0000 -0.0003
vn 0.0356 0.9990 0.0254
vn -0.6623 -0.1128 -0.7407
vn -0.9975 -0.0255 -0.0658
vn -0.9889 0.1174 0.0915
vn -0.9977 -0.0368 -0.0563
vn -0.9653 -0.1410 -0.2198
vn -0.4025 0.7380 -0.5416
vn 0.0006 1.0000 -0.0005
vn -0.2362 0.9717 -0.0085
vn -0.9368 0.3498 -0.0030
vn -0.2335 0.9724 -0.0038
vn -0.9285 0.3713 0.0000
vn -0.0355 0.9966 -0.0739
vn -0.0523 0.9986 -0.0105
vn -0.0002 1.0000 -0.0006
vn 0.0042 0.9997 0.0241
vn -0.0058 1.0000 -0.0001
vn -0.0709 0.9974 0.0108
vn -0.9802 0.1636 -0.1117
vn 0.6902 -0.5964 0.4098
vn -0.9999 0.0139 -0.0031
vn 0.2768 0.0195 0.9607
vn -0.4048 -0.0877 -0.9102
vn 0.9001 -0.4357 0.0017
vn -0.0959 0.0467 -0.9943
vn 0.8486 0.0031 -0.5290
vn 0.0072 -0.0538 -0.9985
vn -0.0630 0.0236 0.9977
vn -0.0041 -0.0595 -0.9982
vn 0.9958 -0.0360 -0.0837
vn 0.0115 0.9999 -0.0000
vn 0.5850 0.7909 0.1797
vn 0.0153 0.1291 0.9915
vn 0.9960 0.0756 -0.0479
vn -0.8559 -0.4284 0.2897
vn 0.9889 0.1484 -0.0046
vn -0.2504 0.0076 0.9681
vn 0.3702 -0.0728 -0.9261
vn -0.9011 -0.4336 0.0016
vn 0.0005 0.0870 -0.9962
vn -0.8482 -0.0120 -0.5296
vn 0.0155 -0.2499 -0.9682
vn 0.0636 0.0192 0.9978
vn 0.0128 -0.0529 -0.9985
vn -0.9965 -0.0009 -0.0837
usemtl metal
s off
f 74//1 2//1 40//1
f 53//2 3//2 42//2
f 42//3 7//3 49//3
f 39//4 31//4 1//4
f 2//5 10//5 9//5
f 1//6 28//6 27//6
f 7//7 13//7 49//7
f 15//8 16//8 3//8
f 62//9 14//9 20//9
f 3//10 10//10 6//10
f 40//11 9//11 53//11
f 18//12 8//12 16//12
f 20//9 13//9 18//9
f 11//13 15//13 6//13
f 17//14 16//14 15//14
f 12//15 17//15 11//15
f 19//16 18//16 17//16
f 47//16 19//16 12//16
f 61//16 20//16 19//16
f 6//17 23//17 11//17
f 30//18 21//18 22//18
f 24//19 26//19 23//19
f 25//20 10//20 5//20
f 27//21 5//21 2//21
f 39//22 27//22 74//22
f 26//23 29//23 30//23
f 29//24 4//24 21//24
f 35//25 78//25 79//25
f 33//26 81//26 80//26
f 31//27 21//27 4//27
f 36//28 78//28 34//28
f 23//29 32//29 33//29
f 22//30 36//30 34//30
f 30//31 34//31 35//31
f 32//32 79//32 81//32
f 74//33 38//33 73//33
f 53//34 41//34 52//34
f 42//35 48//35 41//35
f 82//36 87//36 39//36
f 54//37 38//37 52//37
f 75//38 37//38 73//38
f 58//39 57//39 49//39
f 48//40 60//40 41//40
f 58//9 62//9 66//9
f 41//41 54//41 52//41
f 40//42 52//42 38//42
f 50//43 64//43 60//43
f 57//9 66//9 64//9
f 59//44 55//44 46//44
f 60//45 63//45 59//45
f 63//46 56//46 55//46
f 64//16 65//16 63//16
f 65//16 47//16 56//16
f 66//16 61//16 65//16
f 69//47 46//47 55//47
f 77//48 67//48 76//48
f 72//49 70//49 69//49
f 54//50 71//50 44//50
f 44//51 73//51 38//51
f 39//52 73//52 37//52
f 72//53 76//53 71//53
f 76//54 43//54 75//54
f 86//55 78//55 85//55
f 84//56 81//56 83//56
f 82//57 67//57 68//57
f 78//58 87//58 85//58
f 69//59 83//59 72//59
f 68//60 87//60 82//60
f 77//61 85//61 68//61
f 83//62 79//62 86//62
f 127//63 114//63 161//63
f 140//63 90//63 96//63
f 129//64 94//64 90//64
f 118//65 123//65 126//65
f 97//66 89//66 96//66
f 115//67 88//67 114//67
f 101//68 100//68 136//68
f 94//69 103//69 90//69
f 101//70 149//70 107//70
f 90//71 97//71 96//71
f 127//63 96//63 89//63
f 95//70 105//70 103//70
f 100//70 107//70 105//70
f 102//70 98//70 93//70
f 103//70 104//70 102//70
f 104//70 99//70 98//70
f 105//70 106//70 104//70
f 106//70 134//70 99//70
f 107//70 148//70 106//70
f 110//72 93//72 98//72
f 117//73 108//73 116//73
f 113//74 111//74 110//74
f 97//75 112//75 92//75
f 92//67 114//67 89//67
f 161//63 88//63 126//63
f 113//76 116//76 112//76
f 116//77 91//77 115//77
f 122//78 165//78 121//78
f 120//79 168//79 119//79
f 118//80 108//80 109//80
f 121//81 132//81 123//81
f 110//82 119//82 113//82
f 109//80 123//80 118//80
f 117//83 121//83 109//83
f 119//84 166//84 122//84
f 161//63 125//63 127//63
f 140//63 128//63 129//63
f 129//64 135//64 136//64
f 126//65 169//65 124//65
f 125//85 141//85 139//85
f 124//86 162//86 160//86
f 135//68 144//68 136//68
f 146//87 147//87 128//87
f 149//70 145//70 153//70
f 128//88 141//88 133//88
f 127//63 139//63 140//63
f 151//70 137//70 147//70
f 153//70 144//70 151//70
f 142//70 146//70 133//70
f 150//70 147//70 146//70
f 143//70 150//70 142//70
f 152//70 151//70 150//70
f 134//70 152//70 143//70
f 148//70 153//70 152//70
f 133//72 156//72 142//72
f 164//89 154//89 155//89
f 157//90 159//90 156//90
f 158//91 141//91 131//91
f 160//86 131//86 125//86
f 124//63 161//63 126//63
f 159//92 163//92 164//92
f 163//93 130//93 154//93
f 173//94 165//94 166//94
f 171//95 168//95 167//95
f 169//80 154//80 130//80
f 172//96 132//96 165//96
f 156//97 170//97 171//97
f 155//98 174//98 172//98
f 164//99 172//99 173//99
f 170//100 166//100 168//100
f 5//101 115//101 92//101
f 12//102 134//102 47//102
f 6//103 97//103 93//103
f 11//104 99//104 12//104
f 23//105 98//105 11//105
f 24//106 93//106 111//106
f 26//107 117//107 113//107
f 25//108 92//108 112//108
f 24//109 97//109 10//109
f 25//110 116//110 29//110
f 29//111 115//111 28//111
f 30//112 122//112 117//112
f 23//113 120//113 110//113
f 26//114 119//114 32//114
f 80//115 120//115 33//115
f 32//116 122//116 35//116
f 44//117 162//117 75//117
f 47//102 143//102 56//102
f 46//118 141//118 54//118
f 55//119 143//119 142//119
f 69//120 142//120 156//120
f 70//121 133//121 46//121
f 72//122 164//122 77//122
f 71//123 131//123 44//123
f 70//124 141//124 157//124
f 71//125 163//125 158//125
f 76//126 162//126 163//126
f 77//127 173//127 86//127
f 69//128 171//128 84//128
f 72//129 170//129 159//129
f 80//130 171//130 167//130
f 83//131 173//131 170//131
f 74//132 27//132 2//132
f 53//133 9//133 3//133
f 42//134 3//134 7//134
f 4//135 1//135 31//135
f 39//136 45//136 36//136
f 36//137 31//137 39//137
f 2//138 5//138 10//138
f 1//139 4//139 28//139
f 51//39 49//39 14//39
f 7//140 8//140 13//140
f 14//39 49//39 13//39
f 7//141 3//141 16//141
f 3//142 6//142 15//142
f 16//143 8//143 7//143
f 62//9 51//9 14//9
f 3//144 9//144 10//144
f 40//145 2//145 9//145
f 18//146 13//146 8//146
f 20//9 14//9 13//9
f 11//147 17//147 15//147
f 17//148 18//148 16//148
f 12//16 19//16 17//16
f 19//16 20//16 18//16
f 47//16 61//16 19//16
f 61//16 62//16 20//16
f 6//149 24//149 23//149
f 30//150 29//150 21//150
f 24//151 25//151 26//151
f 25//152 24//152 10//152
f 27//153 28//153 5//153
f 39//154 1//154 27//154
f 26//155 25//155 29//155
f 29//156 28//156 4//156
f 35//157 34//157 78//157
f 33//158 32//158 81//158
f 31//159 22//159 21//159
f 36//160 45//160 78//160
f 23//161 26//161 32//161
f 22//162 31//162 36//162
f 30//163 22//163 34//163
f 32//164 35//164 79//164
f 74//165 40//165 38//165
f 53//166 42//166 41//166
f 42//167 49//167 48//167
f 39//168 37//168 82//168
f 43//169 82//169 37//169
f 87//170 45//170 39//170
f 54//171 44//171 38//171
f 75//172 43//172 37//172
f 48//173 49//173 57//173
f 51//39 58//39 49//39
f 57//174 50//174 48//174
f 46//175 41//175 59//175
f 48//176 50//176 60//176
f 59//177 41//177 60//177
f 58//9 51//9 62//9
f 41//178 46//178 54//178
f 40//179 53//179 52//179
f 50//180 57//180 64//180
f 57//9 58//9 66//9
f 59//181 63//181 55//181
f 60//182 64//182 63//182
f 63//16 65//16 56//16
f 64//16 66//16 65//16
f 65//16 61//16 47//16
f 66//16 62//16 61//16
f 69//183 70//183 46//183
f 77//184 68//184 67//184
f 72//185 71//185 70//185
f 54//186 70//186 71//186
f 44//187 75//187 73//187
f 39//188 74//188 73//188
f 72//189 77//189 76//189
f 76//190 67//190 43//190
f 86//191 79//191 78//191
f 84//192 80//192 81//192
f 82//193 43//193 67//193
f 78//194 45//194 87//194
f 69//195 84//195 83//195
f 68//196 85//196 87//196
f 77//197 86//197 85//197
f 83//198 81//198 79//198
f 127//63 89//63 114//63
f 140//63 129//63 90//63
f 129//64 136//64 94//64
f 126//65 88//65 118//65
f 91//65 118//65 88//65
f 123//65 132//65 126//65
f 97//199 92//199 89//199
f 115//67 91//67 88//67
f 94//68 136//68 100//68
f 138//68 101//68 136//68
f 100//68 95//68 94//68
f 93//200 90//200 102//200
f 94//201 95//201 103//201
f 102//202 90//202 103//202
f 101//70 138//70 149//70
f 90//203 93//203 97//203
f 127//63 140//63 96//63
f 95//70 100//70 105//70
f 100//70 101//70 107//70
f 102//70 104//70 98//70
f 103//70 105//70 104//70
f 104//70 106//70 99//70
f 105//70 107//70 106//70
f 106//70 148//70 134//70
f 107//70 149//70 148//70
f 110//204 111//204 93//204
f 117//89 109//89 108//89
f 113//205 112//205 111//205
f 97//206 111//206 112//206
f 92//67 115//67 114//67
f 161//63 114//63 88//63
f 113//207 117//207 116//207
f 116//208 108//208 91//208
f 122//78 166//78 165//78
f 120//209 167//209 168//209
f 118//80 91//80 108//80
f 121//210 165//210 132//210
f 110//211 120//211 119//211
f 109//212 121//212 123//212
f 117//213 122//213 121//213
f 119//214 168//214 166//214
f 161//63 160//63 125//63
f 140//63 139//63 128//63
f 129//64 128//64 135//64
f 130//65 124//65 169//65
f 126//65 132//65 174//65
f 174//65 169//65 126//65
f 125//215 131//215 141//215
f 124//86 130//86 162//86
f 138//68 136//68 145//68
f 135//68 137//68 144//68
f 145//68 136//68 144//68
f 135//216 128//216 147//216
f 128//217 133//217 146//217
f 147//218 137//218 135//218
f 149//70 138//70 145//70
f 128//219 139//219 141//219
f 127//63 125//63 139//63
f 151//70 144//70 137//70
f 153//70 145//70 144//70
f 142//70 150//70 146//70
f 150//70 151//70 147//70
f 143//70 152//70 150//70
f 152//70 153//70 151//70
f 134//70 148//70 152//70
f 148//70 149//70 153//70
f 133//220 157//220 156//220
f 164//221 163//221 154//221
f 157//222 158//222 159//222
f 158//223 157//223 141//223
f 160//86 162//86 131//86
f 124//63 160//63 161//63
f 159//224 158//224 163//224
f 163//225 162//225 130//225
f 173//94 172//94 165//94
f 171//226 170//226 168//226
f 169//80 155//80 154//80
f 172//81 174//81 132//81
f 156//227 159//227 170//227
f 155//80 169//80 174//80
f 164//228 155//228 172//228
f 170//229 173//229 166//229
f 5//230 28//230 115//230
f 12//102 99//102 134//102
f 6//231 10//231 97//231
f 11//119 98//119 99//119
f 23//232 110//232 98//232
f 24//233 6//233 93//233
f 26//234 30//234 117//234
f 25//235 5//235 92//235
f 24//236 111//236 97//236
f 25//237 112//237 116//237
f 29//238 116//238 115//238
f 30//239 35//239 122//239
f 23//240 33//240 120//240
f 26//241 113//241 119//241
f 80//242 167//242 120//242
f 32//243 119//243 122//243
f 44//244 131//244 162//244
f 47//102 134//102 143//102
f 46//245 133//245 141//245
f 55//246 56//246 143//246
f 69//247 55//247 142//247
f 70//248 157//248 133//248
f 72//249 159//249 164//249
f 71//250 158//250 131//250
f 70//251 54//251 141//251
f 71//252 76//252 163//252
f 76//253 75//253 162//253
f 77//254 164//254 173//254
f 69//255 156//255 171//255
f 72//256 83//256 170//256
f 80//257 84//257 171//257
f 83//258 86//258 173//258
