# Blender v2.78 (sub 0) OBJ File: 'room.blend'
# www.blender.org
mtllib bookobj.mtl
o Cube.040_Cube.007
v -0.984672 0.067998 1.275735
v -0.998546 0.089585 1.275735
v -0.984671 0.067999 -1.299781
v -0.998545 0.089585 -1.299781
v 0.991131 0.059120 1.275735
v 0.991131 0.094551 1.277072
v 0.991131 0.059120 -1.299781
v 0.991131 0.099625 -1.301945
v -1.005443 0.414677 1.275735
v -1.005443 0.414677 -1.299781
v 0.992640 0.415881 -1.305344
v 0.991131 0.404715 1.281322
v -0.986391 0.445912 1.275735
v -0.986391 0.445912 -1.299781
v 0.991131 0.459225 -1.299781
v 0.991131 0.459225 1.275735
v -0.958869 0.059120 -1.299781
v -0.958869 0.091492 -1.299781
v -0.958869 0.059120 1.275735
v -0.958869 0.091492 1.275735
v -0.958869 0.414889 -1.299781
v -0.958869 0.414889 1.275735
v -0.958869 0.452937 -1.299781
v -0.958869 0.452937 1.275735
v 0.957190 0.385996 1.231576
v -1.012225 0.378891 1.275735
v -1.012225 0.378891 -1.299781
v 0.958699 0.402150 -1.247894
v -0.957430 0.377742 -1.307979
v -0.960076 0.378469 1.285431
v -1.012225 0.114660 1.275735
v 0.957190 0.106625 -1.251498
v 0.957190 0.111122 1.236386
v -1.012225 0.114660 -1.299781
v -0.957430 0.113511 -1.307979
v -0.960076 0.114239 1.285431
v -0.915342 0.099625 -1.301945
v -0.915342 0.059120 1.275735
v -0.913833 0.415881 -1.305344
v -0.915342 0.452937 -1.299781
v -0.915342 0.059120 -1.299781
v -0.915342 0.094551 1.277072
v -0.915342 0.404715 1.281322
v -0.915342 0.452937 1.275735
v -0.944969 0.405683 -1.240497
v -0.953439 0.390562 1.222991
v -0.953439 0.110507 1.226681
v -0.946478 0.104131 -1.243690
v 0.934657 0.202747 1.234782
v 0.934657 0.294371 1.233179
v 0.957190 0.380493 -0.425379
v 0.957190 0.383244 0.403099
v 0.934657 0.289665 -1.253857
v 0.934657 0.201588 -1.253857
v 0.957190 0.112715 -0.423776
v 0.957190 0.111919 0.406305
v 0.934657 0.202361 0.405236
v 0.934657 0.292802 0.404167
v 0.934657 0.201974 -0.424310
v 0.934657 0.291234 -0.424845
vn -0.8412 -0.5407 -0.0000
vn 0.0000 -0.0534 -0.9986
vn 1.0000 -0.0000 0.0000
vn 0.0000 0.0000 1.0000
vn 0.0000 -1.0000 0.0000
vn -0.0018 -0.9564 0.2921
vn 0.9999 0.0154 0.0003
vn -0.0790 0.1171 -0.9900
vn 0.5747 -0.8184 -0.0041
vn -0.9825 0.1862 0.0000
vn -0.2473 0.9689 0.0000
vn -0.8537 0.5207 0.0000
vn -0.0002 0.1081 0.9941
vn 0.0000 0.0000 -1.0000
vn -0.0633 0.0724 -0.9954
vn 0.0000 1.0000 0.0000
vn 0.6443 -0.7183 -0.2626
vn -0.0964 0.1429 0.9850
vn -0.3254 -0.9456 -0.0000
vn -0.0147 -0.0197 0.9997
vn -0.1828 0.0000 0.9831
vn 0.9846 -0.0016 -0.1747
vn -1.0000 0.0000 0.0000
vn 0.9744 -0.2249 -0.0018
vn -0.1480 0.0000 -0.9890
vn -0.0048 0.0153 0.9999
vn -0.0010 0.9415 0.3370
vn -0.0833 -0.1919 -0.9779
vn 0.3823 0.9240 0.0001
vn -0.8779 -0.4789 -0.0000
vn 0.3366 0.8999 -0.2771
vn -0.0986 -0.2272 0.9689
vn -0.0009 0.9944 -0.1058
vn 0.4313 0.8241 0.3672
vn 0.9940 0.0007 0.1089
vn -0.0054 0.0114 -0.9999
vn 0.0000 -0.0377 0.9993
vn -0.0013 -0.9813 -0.1927
vn -0.0033 1.0000 0.0000
vn -0.0002 0.1371 -0.9906
vn -0.0564 0.0645 0.9963
vn 0.4899 -0.7714 0.4062
vn -0.0221 -0.0297 -0.9993
vn 0.9707 -0.2403 0.0006
vn 0.9700 -0.2432 0.0006
vn 0.9707 0.2403 0.0001
vn 0.9700 0.2433 0.0001
vn 0.9714 0.2376 -0.0009
usemtl None
s off
f 1//1 2//1 4//1 3//1
f 41//2 37//2 8//2 7//2
f 7//3 8//3 6//3 5//3
f 19//4 20//4 2//4 1//4
f 41//5 7//5 5//5 38//5
f 46//6 25//6 12//6 43//6
f 12//7 11//7 15//7 16//7
f 29//8 27//8 10//8 21//8
f 25//9 52//9 51//9 28//9 11//9 12//9
f 27//10 26//10 9//10 10//10
f 23//11 14//11 13//11 24//11
f 10//12 9//12 13//12 14//12
f 43//13 12//13 16//13 44//13
f 21//14 10//14 14//14 23//14
f 39//15 21//15 23//15 40//15
f 9//4 22//4 24//4 13//4
f 40//16 23//16 24//16 44//16
f 45//17 29//17 21//17 39//17
f 26//18 30//18 22//18 9//18
f 3//19 17//19 19//19 1//19
f 38//20 42//20 20//20 19//20
f 3//14 4//14 18//14 17//14
f 31//21 36//21 30//21 26//21
f 48//22 35//22 29//22 45//22
f 34//23 31//23 26//23 27//23
f 60//24 53//24 28//24 51//24
f 35//25 34//25 27//25 29//25
f 47//26 33//26 49//26 50//26 25//26 46//26
f 42//27 6//27 33//27 47//27
f 18//28 4//28 34//28 35//28
f 6//29 8//29 32//29 55//29 56//29 33//29
f 4//30 2//30 31//30 34//30
f 37//31 18//31 35//31 48//31
f 2//32 20//32 36//32 31//32
f 8//33 37//33 48//33 32//33
f 20//34 42//34 47//34 36//34
f 36//35 47//35 46//35 30//35
f 32//36 48//36 45//36 28//36 53//36 54//36
f 5//37 6//37 42//37 38//37
f 28//38 45//38 39//38 11//38
f 15//39 40//39 44//39 16//39
f 11//40 39//40 40//40 15//40
f 22//41 43//41 44//41 24//41
f 30//42 46//42 43//42 22//42
f 17//5 41//5 38//5 19//5
f 17//43 18//43 37//43 41//43
f 50//44 58//44 52//44 25//44
f 58//45 60//45 51//45 52//45
f 33//46 56//46 57//46 49//46
f 49//3 57//3 58//3 50//3
f 56//47 55//47 59//47 57//47
f 57//3 59//3 60//3 58//3
f 55//48 32//48 54//48 59//48
f 59//3 54//3 53//3 60//3
