# Blender v2.78 (sub 0) OBJ File: 'room.blend'
# www.blender.org
mtllib books.mtl
o Cube.036_Cube.041
v 0.702065 1.280751 -1.386433
v 0.702065 1.314680 -1.386433
v 0.918878 1.280751 -1.244524
v 0.918878 1.314680 -1.244524
v 0.588077 1.280751 -1.212279
v 0.588077 1.314680 -1.212279
v 0.804890 1.280751 -1.070370
v 0.804890 1.314680 -1.070370
vn 0.5476 0.0000 -0.8367
vn 0.8367 0.0000 0.5476
vn -0.5476 0.0000 0.8367
vn -0.8367 0.0000 -0.5476
vn 0.0000 -1.0000 0.0000
vn 0.0000 1.0000 0.0000
usemtl None
s off
f 1//1 2//1 4//1 3//1
f 3//2 4//2 8//2 7//2
f 7//3 8//3 6//3 5//3
f 5//4 6//4 2//4 1//4
f 3//5 7//5 5//5 1//5
f 8//6 4//6 2//6 6//6
o Cube.035_Cube.040
v 0.718298 1.252509 -1.424512
v 0.718298 1.280345 -1.424512
v 0.987353 1.252509 -1.248409
v 0.987353 1.280345 -1.248409
v 0.576844 1.252509 -1.208394
v 0.576844 1.280345 -1.208394
v 0.845899 1.252509 -1.032291
v 0.845899 1.280345 -1.032291
vn 0.5476 0.0000 -0.8367
vn 0.8367 0.0000 0.5476
vn -0.5476 0.0000 0.8367
vn -0.8367 0.0000 -0.5476
vn 0.0000 -1.0000 0.0000
vn 0.0000 1.0000 -0.0000
usemtl None
s off
f 9//7 10//7 12//7 11//7
f 11//8 12//8 16//8 15//8
f 15//9 16//9 14//9 13//9
f 13//10 14//10 10//10 9//10
f 11//11 15//11 13//11 9//11
f 16//12 12//12 10//12 14//12
