# Blender v2.78 (sub 0) OBJ File: 'room.blend'
# www.blender.org
mtllib box.mtl
o box_Cube.043
v -0.493082 0.020692 0.376648
v -0.493082 0.035011 0.376648
v -0.493082 0.020692 -0.362806
v -0.493417 0.035003 -0.362806
v 0.478561 0.020692 0.376648
v 0.478561 0.035011 0.376648
v 0.478561 0.020692 -0.362806
v 0.478561 0.035011 -0.362806
v -0.470368 0.020692 -0.362806
v -0.468778 0.031313 -0.359676
v -0.470368 0.020692 0.376648
v -0.469390 0.032758 0.372400
v 0.462452 0.038810 -0.357510
v 0.460895 0.020692 0.376648
v 0.460895 0.020692 -0.362806
v 0.461841 0.037275 0.378594
v -0.493082 0.020692 -0.342616
v -0.502932 0.045809 -0.339884
v 0.478561 0.020692 -0.342616
v 0.479359 0.034999 -0.342616
v -0.469619 0.032231 -0.345267
v -0.470368 0.020692 -0.342616
v 0.461601 0.040212 -0.341371
v 0.460895 0.020692 -0.342616
v -0.493082 0.020692 0.360301
v 0.479359 0.034999 0.360300
v -0.469310 0.034015 0.361698
v -0.470368 0.020692 0.360301
v 0.461948 0.033603 0.358902
v 0.460895 0.020692 0.360301
v -0.482866 0.031591 0.349589
v 0.478561 0.020692 0.360301
v -0.502968 0.432044 -0.331904
v -0.492758 0.428607 -0.362806
v 0.459330 0.432659 -0.364938
v 0.478561 0.428616 -0.362806
v 0.488896 0.428560 0.360243
v 0.478561 0.428616 0.376648
v -0.471314 0.426352 0.374702
v -0.493082 0.428616 0.376648
v -0.471887 0.424411 -0.369040
v 0.459917 0.430869 0.380895
v -0.470368 0.428616 0.360301
v 0.468401 0.428615 0.360256
v -0.483549 0.417826 0.357569
v 0.488393 0.428563 -0.342674
v -0.472120 0.424399 -0.345243
v 0.466086 0.432814 -0.338624
v 0.455133 0.443776 0.352377
v -0.469980 0.440117 0.369803
v -0.470368 0.431576 0.357469
v 0.454071 0.431576 0.341554
v 0.423493 0.565686 0.163572
v -0.454873 0.562169 0.179932
v -0.454508 0.552657 0.167212
v 0.423155 0.552657 0.152260
v -0.464470 0.450678 -0.345025
v 0.461713 0.455623 -0.337904
v -0.456338 0.440010 -0.325583
v 0.454122 0.440010 -0.326239
v -0.442021 0.562558 -0.135331
v 0.459938 0.552677 -0.146390
v -0.432363 0.549321 -0.119643
v 0.454017 0.535334 -0.135965
vn -0.9594 -0.2373 -0.1523
vn -0.1345 0.1660 -0.9769
vn 0.9993 -0.0278 0.0244
vn 0.0975 0.1547 0.9831
vn 0.0000 -1.0000 0.0000
vn 0.9669 -0.0111 -0.2549
vn 0.1722 -0.0025 0.9851
vn -0.0035 0.0803 0.9968
vn 0.0748 0.1205 -0.9899
vn 0.0522 -0.0644 0.9966
vn 0.9997 -0.0236 -0.0004
vn -0.0000 0.2813 -0.9596
vn 0.9467 -0.0114 0.3218
vn -0.0066 -0.0059 1.0000
vn -0.9996 -0.0015 0.0286
vn 0.9994 -0.0278 -0.0198
vn -0.9998 0.0134 0.0145
vn -0.9309 0.2748 -0.2407
vn -0.0702 -0.0121 -0.9975
vn -0.0041 1.0000 0.0034
vn -0.9190 0.0032 -0.3943
vn 0.9984 -0.0557 0.0000
vn -0.2193 0.9269 -0.3047
vn 0.7746 0.6239 -0.1039
vn 0.0551 0.9979 -0.0342
vn 0.1922 0.9788 -0.0708
vn -0.0009 0.7199 -0.6941
vn 0.2160 0.9762 -0.0199
vn 0.1003 0.9950 0.0028
vn -0.0693 0.9976 0.0082
vn 1.0000 0.0045 -0.0015
vn -0.0056 -0.0035 1.0000
vn -0.9386 0.0043 -0.3451
vn -0.9999 0.0139 0.0020
vn 0.1347 -0.0026 0.9909
vn -0.0015 -0.0000 -1.0000
vn -0.0913 -0.0098 -0.9958
vn 0.0035 -0.0213 -0.9998
vn 0.9902 0.0568 -0.1273
vn 0.0003 0.7816 0.6238
vn -0.9974 0.0631 -0.0356
vn -0.0023 -0.9646 -0.2637
vn -0.0137 0.7293 -0.6841
vn 0.0068 0.8408 0.5414
vn -0.0092 -0.8432 -0.5376
vn -0.9973 0.0604 -0.0426
vn -0.0026 -0.8884 0.4590
vn -0.9333 0.2697 0.2371
vn 0.0018 -0.8148 0.5797
vn 0.9781 0.1845 0.0966
vn 0.0203 0.6507 0.7591
vn -0.9178 -0.2988 0.2615
vn 0.9460 -0.2876 0.1496
vn 0.0014 0.8869 -0.4619
usemtl None
s off
f 17//1 18//1 4//1 3//1
f 15//2 13//2 8//2 7//2
f 32//3 26//3 6//3 5//3
f 11//4 12//4 2//4 1//4
f 30//5 32//5 5//5 14//5
f 20//6 8//6 36//6 46//6
f 16//7 6//7 38//7 42//7
f 25//5 28//5 11//5 1//5
f 14//8 16//8 12//8 11//8
f 3//9 4//9 10//9 9//9
f 5//10 6//10 16//10 14//10
f 26//11 20//11 46//11 37//11
f 28//5 30//5 14//5 11//5
f 9//12 10//12 13//12 15//12
f 9//5 15//5 24//5 22//5
f 6//13 26//13 37//13 38//13
f 3//5 9//5 22//5 17//5
f 12//14 16//14 42//14 39//14
f 18//15 31//15 45//15 33//15
f 15//5 7//5 19//5 24//5
f 7//16 8//16 20//16 19//16
f 25//17 31//17 18//17 17//17
f 1//18 2//18 31//18 25//18
f 22//5 24//5 30//5 28//5
f 10//19 4//19 34//19 41//19
f 17//5 22//5 28//5 25//5
f 23//20 21//20 27//20 29//20
f 31//21 2//21 40//21 45//21
f 24//5 19//5 32//5 30//5
f 19//22 20//22 26//22 32//22
f 43//23 45//23 40//23 39//23
f 42//24 44//24 52//24 49//24
f 37//25 44//25 42//25 38//25
f 36//26 35//26 48//26 46//26
f 35//27 41//27 57//27 58//27
f 41//28 34//28 33//28 47//28
f 46//29 48//29 44//29 37//29
f 47//30 33//30 45//30 43//30
f 27//31 21//31 47//31 43//31
f 21//32 23//32 48//32 47//32
f 4//33 18//33 33//33 34//33
f 23//34 29//34 44//34 48//34
f 2//35 12//35 39//35 40//35
f 29//36 27//36 43//36 44//36
f 8//37 13//37 35//37 36//37
f 13//38 10//38 41//38 35//38
f 49//39 52//39 56//39 53//39
f 39//40 42//40 49//40 50//40
f 43//41 39//41 50//41 51//41
f 44//42 43//42 51//42 52//42
f 56//43 55//43 54//43 53//43
f 50//44 49//44 53//44 54//44
f 52//45 51//45 55//45 56//45
f 51//46 50//46 54//46 55//46
f 59//47 60//47 64//47 63//47
f 41//48 47//48 59//48 57//48
f 47//49 48//49 60//49 59//49
f 48//50 35//50 58//50 60//50
f 62//51 61//51 63//51 64//51
f 57//52 59//52 63//52 61//52
f 60//53 58//53 62//53 64//53
f 58//54 57//54 61//54 62//54
