# Blender v2.78 (sub 0) OBJ File: 'room.blend'
# www.blender.org
mtllib table-small.mtl
o Cylinder.019_Cylinder.020
v -1.377659 0.708474 -0.868420
v -1.377659 0.708474 -0.914827
v -1.359761 0.702658 -0.868420
v -1.359761 0.702658 -0.914827
v -1.348699 0.687433 -0.868420
v -1.348699 0.687433 -0.914827
v -1.348699 0.668613 -0.868420
v -1.348699 0.668613 -0.914827
v -1.359761 0.653388 -0.868420
v -1.359761 0.653388 -0.914827
v -1.377659 0.647572 -0.868420
v -1.377659 0.647572 -0.914827
v -1.395558 0.653388 -0.868420
v -1.395558 0.653388 -0.914827
v -1.406620 0.668613 -0.868420
v -1.406620 0.668613 -0.914827
v -1.406620 0.687433 -0.868420
v -1.406620 0.687433 -0.914827
v -1.395558 0.702658 -0.868420
v -1.395558 0.702658 -0.914827
vn -0.3090 -0.9511 0.0000
vn -0.8090 -0.5878 0.0000
vn -1.0000 0.0000 0.0000
vn -0.8090 0.5878 0.0000
vn -0.3090 0.9511 0.0000
vn 0.3090 0.9511 0.0000
vn 0.8090 0.5878 0.0000
vn 1.0000 0.0000 0.0000
vn -0.0000 0.0000 1.0000
vn 0.8090 -0.5878 0.0000
vn 0.3090 -0.9511 0.0000
vn 0.0000 0.0000 -1.0000
usemtl None
s off
f 1//1 2//1 4//1 3//1
f 3//2 4//2 6//2 5//2
f 5//3 6//3 8//3 7//3
f 7//4 8//4 10//4 9//4
f 9//5 10//5 12//5 11//5
f 11//6 12//6 14//6 13//6
f 13//7 14//7 16//7 15//7
f 15//8 16//8 18//8 17//8
f 4//9 2//9 20//9 18//9 16//9 14//9 12//9 10//9 8//9 6//9
f 17//10 18//10 20//10 19//10
f 19//11 20//11 2//11 1//11
f 1//12 3//12 5//12 7//12 9//12 11//12 13//12 15//12 17//12 19//12
o Cylinder.018_Cylinder.019
v 1.455708 0.708474 -0.868420
v 1.455708 0.708474 -0.914827
v 1.473606 0.702658 -0.868420
v 1.473606 0.702658 -0.914827
v 1.484668 0.687433 -0.868420
v 1.484668 0.687433 -0.914827
v 1.484668 0.668613 -0.868420
v 1.484668 0.668613 -0.914827
v 1.473606 0.653388 -0.868420
v 1.473606 0.653388 -0.914827
v 1.455708 0.647572 -0.868420
v 1.455708 0.647572 -0.914827
v 1.437809 0.653388 -0.868420
v 1.437809 0.653388 -0.914827
v 1.426748 0.668613 -0.868420
v 1.426748 0.668613 -0.914827
v 1.426748 0.687433 -0.868420
v 1.426748 0.687433 -0.914827
v 1.437810 0.702658 -0.868420
v 1.437810 0.702658 -0.914827
vn -0.3090 -0.9511 0.0000
vn -0.8090 -0.5878 0.0000
vn -1.0000 0.0000 0.0000
vn -0.8090 0.5878 0.0000
vn -0.3090 0.9511 0.0000
vn 0.3090 0.9511 0.0000
vn 0.8090 0.5878 0.0000
vn 1.0000 0.0000 0.0000
vn -0.0000 0.0000 1.0000
vn 0.8090 -0.5878 0.0000
vn 0.3090 -0.9511 0.0000
vn 0.0000 0.0000 -1.0000
usemtl None
s off
f 21//13 22//13 24//13 23//13
f 23//14 24//14 26//14 25//14
f 25//15 26//15 28//15 27//15
f 27//16 28//16 30//16 29//16
f 29//17 30//17 32//17 31//17
f 31//18 32//18 34//18 33//18
f 33//19 34//19 36//19 35//19
f 35//20 36//20 38//20 37//20
f 24//21 22//21 40//21 38//21 36//21 34//21 32//21 30//21 28//21 26//21
f 37//22 38//22 40//22 39//22
f 39//23 40//23 22//23 21//23
f 21//24 23//24 25//24 27//24 29//24 31//24 33//24 35//24 37//24 39//24
o Cylinder.017_Cylinder.018
v 1.455708 0.708474 0.825464
v 1.455708 0.708474 0.779057
v 1.473606 0.702658 0.825464
v 1.473606 0.702658 0.779057
v 1.484668 0.687433 0.825464
v 1.484668 0.687433 0.779057
v 1.484668 0.668613 0.825464
v 1.484668 0.668613 0.779057
v 1.473606 0.653388 0.825464
v 1.473606 0.653388 0.779057
v 1.455708 0.647572 0.825464
v 1.455708 0.647572 0.779057
v 1.437809 0.653388 0.825464
v 1.437809 0.653388 0.779057
v 1.426748 0.668613 0.825464
v 1.426748 0.668613 0.779057
v 1.426748 0.687433 0.825464
v 1.426748 0.687433 0.779057
v 1.437810 0.702658 0.825464
v 1.437810 0.702658 0.779057
vn -0.3090 -0.9511 0.0000
vn -0.8090 -0.5878 0.0000
vn -1.0000 0.0000 0.0000
vn -0.8090 0.5878 0.0000
vn -0.3090 0.9511 0.0000
vn 0.3090 0.9511 0.0000
vn 0.8090 0.5878 0.0000
vn 1.0000 0.0000 0.0000
vn -0.0000 0.0000 1.0000
vn 0.8090 -0.5878 0.0000
vn 0.3090 -0.9511 0.0000
vn -0.0000 0.0000 -1.0000
usemtl None
s off
f 41//25 42//25 44//25 43//25
f 43//26 44//26 46//26 45//26
f 45//27 46//27 48//27 47//27
f 47//28 48//28 50//28 49//28
f 49//29 50//29 52//29 51//29
f 51//30 52//30 54//30 53//30
f 53//31 54//31 56//31 55//31
f 55//32 56//32 58//32 57//32
f 44//33 42//33 60//33 58//33 56//33 54//33 52//33 50//33 48//33 46//33
f 57//34 58//34 60//34 59//34
f 59//35 60//35 42//35 41//35
f 41//36 43//36 45//36 47//36 49//36 51//36 53//36 55//36 57//36 59//36
o Cylinder.016_Cylinder.017
v -1.377659 0.708474 0.825464
v -1.377659 0.708474 0.779057
v -1.359761 0.702658 0.825464
v -1.359761 0.702658 0.779057
v -1.348699 0.687433 0.825464
v -1.348699 0.687433 0.779057
v -1.348699 0.668613 0.825464
v -1.348699 0.668613 0.779057
v -1.359761 0.653388 0.825464
v -1.359761 0.653388 0.779057
v -1.377659 0.647572 0.825464
v -1.377659 0.647572 0.779057
v -1.395558 0.653388 0.825464
v -1.395558 0.653388 0.779057
v -1.406620 0.668613 0.825464
v -1.406620 0.668613 0.779057
v -1.406620 0.687433 0.825464
v -1.406620 0.687433 0.779057
v -1.395558 0.702658 0.825464
v -1.395558 0.702658 0.779057
vn -0.3090 -0.9511 0.0000
vn -0.8090 -0.5878 0.0000
vn -1.0000 0.0000 0.0000
vn -0.8090 0.5878 0.0000
vn -0.3090 0.9511 0.0000
vn 0.3090 0.9511 0.0000
vn 0.8090 0.5878 0.0000
vn 1.0000 0.0000 0.0000
vn -0.0000 0.0000 1.0000
vn 0.8090 -0.5878 0.0000
vn 0.3090 -0.9511 0.0000
vn -0.0000 0.0000 -1.0000
usemtl None
s off
f 61//37 62//37 64//37 63//37
f 63//38 64//38 66//38 65//38
f 65//39 66//39 68//39 67//39
f 67//40 68//40 70//40 69//40
f 69//41 70//41 72//41 71//41
f 71//42 72//42 74//42 73//42
f 73//43 74//43 76//43 75//43
f 75//44 76//44 78//44 77//44
f 64//45 62//45 80//45 78//45 76//45 74//45 72//45 70//45 68//45 66//45
f 77//46 78//46 80//46 79//46
f 79//47 80//47 62//47 61//47
f 61//48 63//48 65//48 67//48 69//48 71//48 73//48 75//48 77//48 79//48
o Cylinder.015_Cylinder.016
v -1.377659 0.052598 -0.926107
v -1.377659 0.006191 -0.926107
v -1.359761 0.052598 -0.920291
v -1.359761 0.006191 -0.920291
v -1.348699 0.052598 -0.905066
v -1.348699 0.006191 -0.905066
v -1.348699 0.052598 -0.886246
v -1.348699 0.006191 -0.886246
v -1.359761 0.052598 -0.871021
v -1.359761 0.006191 -0.871021
v -1.377659 0.052598 -0.865205
v -1.377659 0.006191 -0.865205
v -1.395558 0.052598 -0.871021
v -1.395558 0.006191 -0.871021
v -1.406620 0.052598 -0.886246
v -1.406620 0.006191 -0.886246
v -1.406620 0.052598 -0.905066
v -1.406620 0.006191 -0.905066
v -1.395558 0.052598 -0.920291
v -1.395558 0.006191 -0.920291
vn -0.3090 0.0000 0.9511
vn -0.8090 0.0000 0.5878
vn -1.0000 0.0000 0.0000
vn -0.8090 0.0000 -0.5878
vn -0.3090 0.0000 -0.9511
vn 0.3090 0.0000 -0.9511
vn 0.8090 0.0000 -0.5878
vn 1.0000 0.0000 0.0000
vn 0.0000 1.0000 0.0000
vn 0.8090 0.0000 0.5878
vn 0.3090 0.0000 0.9511
vn 0.0000 -1.0000 0.0000
usemtl None
s off
f 81//49 82//49 84//49 83//49
f 83//50 84//50 86//50 85//50
f 85//51 86//51 88//51 87//51
f 87//52 88//52 90//52 89//52
f 89//53 90//53 92//53 91//53
f 91//54 92//54 94//54 93//54
f 93//55 94//55 96//55 95//55
f 95//56 96//56 98//56 97//56
f 84//57 82//57 100//57 98//57 96//57 94//57 92//57 90//57 88//57 86//57
f 97//58 98//58 100//58 99//58
f 99//59 100//59 82//59 81//59
f 81//60 83//60 85//60 87//60 89//60 91//60 93//60 95//60 97//60 99//60
o Cylinder.014_Cylinder.015
v 1.460703 0.052598 -0.926107
v 1.460703 0.006191 -0.926107
v 1.478602 0.052598 -0.920291
v 1.478602 0.006191 -0.920291
v 1.489664 0.052598 -0.905066
v 1.489664 0.006191 -0.905066
v 1.489664 0.052598 -0.886246
v 1.489664 0.006191 -0.886246
v 1.478602 0.052598 -0.871021
v 1.478602 0.006191 -0.871021
v 1.460703 0.052598 -0.865205
v 1.460703 0.006191 -0.865205
v 1.442805 0.052598 -0.871021
v 1.442805 0.006191 -0.871021
v 1.431743 0.052598 -0.886246
v 1.431743 0.006191 -0.886246
v 1.431743 0.052598 -0.905066
v 1.431743 0.006191 -0.905066
v 1.442805 0.052598 -0.920291
v 1.442805 0.006191 -0.920291
vn -0.3090 0.0000 0.9511
vn -0.8090 0.0000 0.5878
vn -1.0000 0.0000 0.0000
vn -0.8090 0.0000 -0.5878
vn -0.3090 0.0000 -0.9511
vn 0.3090 0.0000 -0.9511
vn 0.8090 0.0000 -0.5878
vn 1.0000 0.0000 0.0000
vn 0.0000 1.0000 0.0000
vn 0.8090 0.0000 0.5878
vn 0.3090 0.0000 0.9511
vn 0.0000 -1.0000 0.0000
usemtl None
s off
f 101//61 102//61 104//61 103//61
f 103//62 104//62 106//62 105//62
f 105//63 106//63 108//63 107//63
f 107//64 108//64 110//64 109//64
f 109//65 110//65 112//65 111//65
f 111//66 112//66 114//66 113//66
f 113//67 114//67 116//67 115//67
f 115//68 116//68 118//68 117//68
f 104//69 102//69 120//69 118//69 116//69 114//69 112//69 110//69 108//69 106//69
f 117//70 118//70 120//70 119//70
f 119//71 120//71 102//71 101//71
f 101//72 103//72 105//72 107//72 109//72 111//72 113//72 115//72 117//72 119//72
o Cylinder.013_Cylinder.014
v 1.460703 0.052598 0.771810
v 1.460703 0.006191 0.771810
v 1.478602 0.052598 0.777625
v 1.478602 0.006191 0.777625
v 1.489664 0.052598 0.792851
v 1.489664 0.006191 0.792851
v 1.489664 0.052598 0.811670
v 1.489664 0.006191 0.811670
v 1.478602 0.052598 0.826896
v 1.478602 0.006191 0.826896
v 1.460703 0.052598 0.832711
v 1.460703 0.006191 0.832711
v 1.442805 0.052598 0.826896
v 1.442805 0.006191 0.826896
v 1.431743 0.052598 0.811670
v 1.431743 0.006191 0.811670
v 1.431743 0.052598 0.792851
v 1.431743 0.006191 0.792851
v 1.442805 0.052598 0.777625
v 1.442805 0.006191 0.777625
vn -0.3090 0.0000 0.9511
vn -0.8090 0.0000 0.5878
vn -1.0000 0.0000 0.0000
vn -0.8090 0.0000 -0.5878
vn -0.3090 0.0000 -0.9511
vn 0.3090 0.0000 -0.9511
vn 0.8090 0.0000 -0.5878
vn 1.0000 0.0000 0.0000
vn 0.0000 1.0000 0.0000
vn 0.8090 0.0000 0.5878
vn 0.3090 0.0000 0.9511
vn 0.0000 -1.0000 0.0000
usemtl None
s off
f 121//73 122//73 124//73 123//73
f 123//74 124//74 126//74 125//74
f 125//75 126//75 128//75 127//75
f 127//76 128//76 130//76 129//76
f 129//77 130//77 132//77 131//77
f 131//78 132//78 134//78 133//78
f 133//79 134//79 136//79 135//79
f 135//80 136//80 138//80 137//80
f 124//81 122//81 140//81 138//81 136//81 134//81 132//81 130//81 128//81 126//81
f 137//82 138//82 140//82 139//82
f 139//83 140//83 122//83 121//83
f 121//84 123//84 125//84 127//84 129//84 131//84 133//84 135//84 137//84 139//84
o Cylinder.011
v -1.381626 0.655510 -0.906418
v -0.642353 1.398814 -0.906418
v -1.373859 0.647785 -0.902859
v -0.634585 1.391088 -0.902859
v -1.369058 0.643010 -0.893540
v -0.629784 1.386314 -0.893540
v -1.369058 0.643010 -0.882020
v -0.629784 1.386314 -0.882020
v -1.373859 0.647785 -0.872701
v -0.634585 1.391088 -0.872701
v -1.381626 0.655510 -0.869142
v -0.642353 1.398814 -0.869142
v -1.389394 0.663236 -0.872701
v -0.650120 1.406539 -0.872701
v -1.394195 0.668010 -0.882020
v -0.654921 1.411314 -0.882020
v -1.394195 0.668010 -0.893540
v -0.654921 1.411314 -0.893540
v -1.389394 0.663236 -0.902859
v -0.650120 1.406539 -0.902859
vn 0.2191 -0.2179 -0.9511
vn 0.5736 -0.5705 -0.5878
vn 0.7090 -0.7052 0.0000
vn 0.5736 -0.5705 0.5878
vn 0.2191 -0.2179 0.9511
vn -0.2191 0.2179 0.9511
vn -0.5736 0.5705 0.5878
vn -0.7090 0.7052 0.0000
vn 0.7052 0.7090 0.0000
vn -0.5736 0.5705 -0.5878
vn -0.2191 0.2179 -0.9511
vn -0.7052 -0.7090 0.0000
usemtl None
s off
f 141//85 142//85 144//85 143//85
f 143//86 144//86 146//86 145//86
f 145//87 146//87 148//87 147//87
f 147//88 148//88 150//88 149//88
f 149//89 150//89 152//89 151//89
f 151//90 152//90 154//90 153//90
f 153//91 154//91 156//91 155//91
f 155//92 156//92 158//92 157//92
f 144//93 142//93 160//93 158//93 156//93 154//93 152//93 150//93 148//93 146//93
f 157//94 158//94 160//94 159//94
f 159//95 160//95 142//95 141//95
f 141//96 143//96 145//96 147//96 149//96 151//96 153//96 155//96 157//96 159//96
o Cylinder.010
v 1.449919 0.662044 -0.906418
v 0.716590 1.411213 -0.906418
v 1.457748 0.669708 -0.902859
v 0.724419 1.418877 -0.902859
v 1.462587 0.674444 -0.893540
v 0.729258 1.423613 -0.893540
v 1.462587 0.674444 -0.882020
v 0.729258 1.423613 -0.882020
v 1.457748 0.669708 -0.872701
v 0.724419 1.418877 -0.872701
v 1.449919 0.662044 -0.869142
v 0.716590 1.411213 -0.869142
v 1.442091 0.654381 -0.872701
v 0.708761 1.403550 -0.872701
v 1.437252 0.649645 -0.882020
v 0.703923 1.398813 -0.882020
v 1.437252 0.649645 -0.893540
v 0.703923 1.398813 -0.893540
v 1.442091 0.654381 -0.902859
v 0.708761 1.403550 -0.902859
vn 0.2208 0.2162 -0.9511
vn 0.5781 0.5659 -0.5878
vn 0.7146 0.6995 0.0000
vn 0.5781 0.5659 0.5878
vn 0.2208 0.2162 0.9511
vn -0.2208 -0.2162 0.9511
vn -0.5781 -0.5659 0.5878
vn -0.7146 -0.6995 0.0000
vn -0.6995 0.7146 -0.0000
vn -0.5781 -0.5659 -0.5878
vn -0.2208 -0.2162 -0.9511
vn 0.6995 -0.7146 0.0000
usemtl None
s off
f 161//97 162//97 164//97 163//97
f 163//98 164//98 166//98 165//98
f 165//99 166//99 168//99 167//99
f 167//100 168//100 170//100 169//100
f 169//101 170//101 172//101 171//101
f 171//102 172//102 174//102 173//102
f 173//103 174//103 176//103 175//103
f 175//104 176//104 178//104 177//104
f 164//105 162//105 180//105 178//105 176//105 174//105 172//105 170//105 168//105 166//105
f 177//106 178//106 180//106 179//106
f 179//107 180//107 162//107 161//107
f 161//108 163//108 165//108 167//108 169//108 171//108 173//108 175//108 177//108 179//108
o Cylinder.009
v 1.453706 0.662044 0.782399
v 0.720377 1.411213 0.782399
v 1.461535 0.669708 0.785959
v 0.728206 1.418877 0.785959
v 1.466374 0.674444 0.795278
v 0.733044 1.423613 0.795278
v 1.466374 0.674444 0.806797
v 0.733044 1.423613 0.806797
v 1.461535 0.669708 0.816116
v 0.728206 1.418877 0.816116
v 1.453706 0.662044 0.819676
v 0.720377 1.411213 0.819676
v 1.445877 0.654381 0.816116
v 0.712548 1.403550 0.816116
v 1.441039 0.649645 0.806797
v 0.707709 1.398813 0.806797
v 1.441039 0.649645 0.795278
v 0.707709 1.398813 0.795278
v 1.445877 0.654381 0.785959
v 0.712548 1.403550 0.785959
vn 0.2208 0.2162 -0.9511
vn 0.5781 0.5659 -0.5878
vn 0.7146 0.6995 0.0000
vn 0.5781 0.5659 0.5878
vn 0.2208 0.2162 0.9511
vn -0.2208 -0.2162 0.9511
vn -0.5781 -0.5659 0.5878
vn -0.7146 -0.6995 0.0000
vn -0.6995 0.7146 -0.0000
vn -0.5781 -0.5659 -0.5878
vn -0.2208 -0.2162 -0.9511
vn 0.6995 -0.7146 0.0000
usemtl None
s off
f 181//109 182//109 184//109 183//109
f 183//110 184//110 186//110 185//110
f 185//111 186//111 188//111 187//111
f 187//112 188//112 190//112 189//112
f 189//113 190//113 192//113 191//113
f 191//114 192//114 194//114 193//114
f 193//115 194//115 196//115 195//115
f 195//116 196//116 198//116 197//116
f 184//117 182//117 200//117 198//117 196//117 194//117 192//117 190//117 188//117 186//117
f 197//118 198//118 200//118 199//118
f 199//119 200//119 182//119 181//119
f 181//120 183//120 185//120 187//120 189//120 191//120 193//120 195//120 197//120 199//120
o Cylinder.008
v -1.377840 0.655510 0.782399
v -0.638566 1.398814 0.782399
v -1.370072 0.647785 0.785959
v -0.630798 1.391088 0.785959
v -1.365272 0.643010 0.795278
v -0.625998 1.386314 0.795278
v -1.365272 0.643010 0.806797
v -0.625998 1.386314 0.806797
v -1.370072 0.647785 0.816116
v -0.630798 1.391088 0.816116
v -1.377840 0.655510 0.819676
v -0.638566 1.398814 0.819676
v -1.385608 0.663236 0.816116
v -0.646334 1.406539 0.816116
v -1.390408 0.668010 0.806797
v -0.651134 1.411314 0.806797
v -1.390408 0.668010 0.795278
v -0.651134 1.411314 0.795278
v -1.385608 0.663236 0.785959
v -0.646334 1.406539 0.785959
vn 0.2191 -0.2179 -0.9511
vn 0.5736 -0.5705 -0.5878
vn 0.7090 -0.7052 0.0000
vn 0.5736 -0.5705 0.5878
vn 0.2191 -0.2179 0.9511
vn -0.2191 0.2179 0.9511
vn -0.5736 0.5705 0.5878
vn -0.7090 0.7052 0.0000
vn 0.7052 0.7090 0.0000
vn -0.5736 0.5705 -0.5878
vn -0.2191 0.2179 -0.9511
vn -0.7052 -0.7090 0.0000
usemtl None
s off
f 201//121 202//121 204//121 203//121
f 203//122 204//122 206//122 205//122
f 205//123 206//123 208//123 207//123
f 207//124 208//124 210//124 209//124
f 209//125 210//125 212//125 211//125
f 211//126 212//126 214//126 213//126
f 213//127 214//127 216//127 215//127
f 215//128 216//128 218//128 217//128
f 204//129 202//129 220//129 218//129 216//129 214//129 212//129 210//129 208//129 206//129
f 217//130 218//130 220//130 219//130
f 219//131 220//131 202//131 201//131
f 201//132 203//132 205//132 207//132 209//132 211//132 213//132 215//132 217//132 219//132
o Cylinder.007
v -1.380551 0.010365 -0.912098
v -1.380551 1.393929 -0.912098
v -1.369595 0.010365 -0.908538
v -1.369595 1.393929 -0.908538
v -1.362825 0.010365 -0.899219
v -1.362825 1.393929 -0.899219
v -1.362825 0.010365 -0.887700
v -1.362825 1.393929 -0.887700
v -1.369595 0.010365 -0.878381
v -1.369595 1.393929 -0.878381
v -1.380551 0.010365 -0.874821
v -1.380551 1.393929 -0.874821
v -1.391506 0.010365 -0.878381
v -1.391506 1.393929 -0.878381
v -1.398277 0.010365 -0.887700
v -1.398277 1.393929 -0.887700
v -1.398277 0.010365 -0.899219
v -1.398277 1.393929 -0.899219
v -1.391506 0.010365 -0.908538
v -1.391506 1.393929 -0.908538
vn 0.3090 0.0000 -0.9511
vn 0.8090 0.0000 -0.5878
vn 1.0000 0.0000 0.0000
vn 0.8090 0.0000 0.5878
vn 0.3090 0.0000 0.9511
vn -0.3090 0.0000 0.9511
vn -0.8090 0.0000 0.5878
vn -1.0000 0.0000 0.0000
vn 0.0000 1.0000 -0.0000
vn -0.8090 0.0000 -0.5878
vn -0.3090 0.0000 -0.9511
vn 0.0000 -1.0000 0.0000
usemtl None
s off
f 221//133 222//133 224//133 223//133
f 223//134 224//134 226//134 225//134
f 225//135 226//135 228//135 227//135
f 227//136 228//136 230//136 229//136
f 229//137 230//137 232//137 231//137
f 231//138 232//138 234//138 233//138
f 233//139 234//139 236//139 235//139
f 235//140 236//140 238//140 237//140
f 224//141 222//141 240//141 238//141 236//141 234//141 232//141 230//141 228//141 226//141
f 237//142 238//142 240//142 239//142
f 239//143 240//143 222//143 221//143
f 221//144 223//144 225//144 227//144 229//144 231//144 233//144 235//144 237//144 239//144
o Cylinder.006
v 1.459389 0.010365 -0.912098
v 1.459389 1.393929 -0.912098
v 1.470344 0.010365 -0.908538
v 1.470344 1.393929 -0.908538
v 1.477115 0.010365 -0.899219
v 1.477115 1.393929 -0.899219
v 1.477115 0.010365 -0.887700
v 1.477115 1.393929 -0.887700
v 1.470344 0.010365 -0.878381
v 1.470344 1.393929 -0.878381
v 1.459389 0.010365 -0.874821
v 1.459389 1.393929 -0.874821
v 1.448433 0.010365 -0.878381
v 1.448433 1.393929 -0.878381
v 1.441663 0.010365 -0.887700
v 1.441663 1.393929 -0.887700
v 1.441663 0.010365 -0.899219
v 1.441663 1.393929 -0.899219
v 1.448433 0.010365 -0.908538
v 1.448433 1.393929 -0.908538
vn 0.3090 0.0000 -0.9511
vn 0.8090 0.0000 -0.5878
vn 1.0000 0.0000 0.0000
vn 0.8090 0.0000 0.5878
vn 0.3090 0.0000 0.9511
vn -0.3090 0.0000 0.9511
vn -0.8090 0.0000 0.5878
vn -1.0000 0.0000 0.0000
vn 0.0000 1.0000 -0.0000
vn -0.8090 0.0000 -0.5878
vn -0.3090 0.0000 -0.9511
vn 0.0000 -1.0000 0.0000
usemtl None
s off
f 241//145 242//145 244//145 243//145
f 243//146 244//146 246//146 245//146
f 245//147 246//147 248//147 247//147
f 247//148 248//148 250//148 249//148
f 249//149 250//149 252//149 251//149
f 251//150 252//150 254//150 253//150
f 253//151 254//151 256//151 255//151
f 255//152 256//152 258//152 257//152
f 244//153 242//153 260//153 258//153 256//153 254//153 252//153 250//153 248//153 246//153
f 257//154 258//154 260//154 259//154
f 259//155 260//155 242//155 241//155
f 241//156 243//156 245//156 247//156 249//156 251//156 253//156 255//156 257//156 259//156
o Cylinder.005
v 1.459389 0.010365 0.782399
v 1.459389 1.393929 0.782399
v 1.470344 0.010365 0.785959
v 1.470344 1.393929 0.785959
v 1.477115 0.010365 0.795278
v 1.477115 1.393929 0.795278
v 1.477115 0.010365 0.806797
v 1.477115 1.393929 0.806797
v 1.470344 0.010365 0.816116
v 1.470344 1.393929 0.816116
v 1.459389 0.010365 0.819676
v 1.459389 1.393929 0.819676
v 1.448433 0.010365 0.816116
v 1.448433 1.393929 0.816116
v 1.441663 0.010365 0.806797
v 1.441663 1.393929 0.806797
v 1.441663 0.010365 0.795278
v 1.441663 1.393929 0.795278
v 1.448433 0.010365 0.785959
v 1.448433 1.393929 0.785959
vn 0.3090 0.0000 -0.9511
vn 0.8090 0.0000 -0.5878
vn 1.0000 0.0000 0.0000
vn 0.8090 0.0000 0.5878
vn 0.3090 0.0000 0.9511
vn -0.3090 0.0000 0.9511
vn -0.8090 0.0000 0.5878
vn -1.0000 0.0000 0.0000
vn 0.0000 1.0000 -0.0000
vn -0.8090 0.0000 -0.5878
vn -0.3090 0.0000 -0.9511
vn 0.0000 -1.0000 0.0000
usemtl None
s off
f 261//157 262//157 264//157 263//157
f 263//158 264//158 266//158 265//158
f 265//159 266//159 268//159 267//159
f 267//160 268//160 270//160 269//160
f 269//161 270//161 272//161 271//161
f 271//162 272//162 274//162 273//162
f 273//163 274//163 276//163 275//163
f 275//164 276//164 278//164 277//164
f 264//165 262//165 280//165 278//165 276//165 274//165 272//165 270//165 268//165 266//165
f 277//166 278//166 280//166 279//166
f 279//167 280//167 262//167 261//167
f 261//168 263//168 265//168 267//168 269//168 271//168 273//168 275//168 277//168 279//168
o Cylinder.004
v -1.374240 0.010365 0.782399
v -1.374240 1.393929 0.782399
v -1.363284 0.010365 0.785959
v -1.363284 1.393929 0.785959
v -1.356514 0.010365 0.795278
v -1.356514 1.393929 0.795278
v -1.356514 0.010365 0.806797
v -1.356514 1.393929 0.806797
v -1.363284 0.010365 0.816116
v -1.363284 1.393929 0.816116
v -1.374240 0.010365 0.819676
v -1.374240 1.393929 0.819676
v -1.385195 0.010365 0.816116
v -1.385195 1.393929 0.816116
v -1.391966 0.010365 0.806797
v -1.391966 1.393929 0.806797
v -1.391966 0.010365 0.795278
v -1.391966 1.393929 0.795278
v -1.385195 0.010365 0.785959
v -1.385195 1.393929 0.785959
vn 0.3090 0.0000 -0.9511
vn 0.8090 0.0000 -0.5878
vn 1.0000 0.0000 0.0000
vn 0.8090 0.0000 0.5878
vn 0.3090 0.0000 0.9511
vn -0.3090 0.0000 0.9511
vn -0.8090 0.0000 0.5878
vn -1.0000 0.0000 0.0000
vn 0.0000 1.0000 -0.0000
vn -0.8090 0.0000 -0.5878
vn -0.3090 0.0000 -0.9511
vn 0.0000 -1.0000 0.0000
usemtl None
s off
f 281//169 282//169 284//169 283//169
f 283//170 284//170 286//170 285//170
f 285//171 286//171 288//171 287//171
f 287//172 288//172 290//172 289//172
f 289//173 290//173 292//173 291//173
f 291//174 292//174 294//174 293//174
f 293//175 294//175 296//175 295//175
f 295//176 296//176 298//176 297//176
f 284//177 282//177 300//177 298//177 296//177 294//177 292//177 290//177 288//177 286//177
f 297//178 298//178 300//178 299//178
f 299//179 300//179 282//179 281//179
f 281//180 283//180 285//180 287//180 289//180 291//180 293//180 295//180 297//180 299//180
o Cube.037_Cube
v -1.614867 1.356523 0.884145
v -1.614867 1.433144 0.884145
v -1.540909 1.356523 -0.904171
v -1.540909 1.433144 -0.904171
v 1.610982 1.356523 0.916281
v 1.610982 1.433144 0.916281
v 1.618570 1.356523 -0.934823
v 1.618570 1.433144 -0.934823
v -1.495014 1.356523 -0.982336
v -1.495014 1.433144 -0.982336
v -1.534418 1.356523 0.964287
v -1.534418 1.433144 0.964287
v 1.567466 1.433144 -0.974404
v 1.575054 1.356523 0.970017
v 1.567466 1.356523 -0.974404
v 1.575054 1.433144 0.970017
v -1.438426 1.356523 -1.000052
v -1.400325 1.433144 0.999948
v -1.438426 1.433144 -1.000052
v -1.400325 1.356523 0.999948
v 1.507683 1.433144 -1.000052
v 1.507683 1.356523 0.999948
v 1.507683 1.356523 -1.000052
v 1.507683 1.433144 0.999948
vn -0.9991 0.0000 -0.0413
vn 0.6123 0.0000 -0.7906
vn 1.0000 0.0000 0.0041
vn -0.7058 0.0000 0.7085
vn 0.0000 -1.0000 -0.0000
vn 0.0000 1.0000 0.0000
vn -0.2570 -0.0000 0.9664
vn -0.8623 0.0000 -0.5063
vn 0.8313 0.0000 0.5558
vn 0.3943 0.0000 -0.9190
vn -0.2988 0.0000 -0.9543
vn 0.0000 0.0000 1.0000
vn 0.4060 0.0000 0.9139
vn 0.0000 0.0000 -1.0000
usemtl None
s off
f 301//181 302//181 304//181 303//181
f 315//182 313//182 308//182 307//182
f 307//183 308//183 306//183 305//183
f 311//184 312//184 302//184 301//184
f 315//185 307//185 305//185 314//185
f 310//186 304//186 302//186 312//186
f 319//186 310//186 312//186 318//186
f 303//185 309//185 311//185 301//185
f 320//187 318//187 312//187 311//187
f 303//188 304//188 310//188 309//188
f 305//189 306//189 316//189 314//189
f 308//186 313//186 316//186 306//186
f 323//185 315//185 314//185 322//185
f 323//190 321//190 313//190 315//190
f 309//191 310//191 319//191 317//191
f 309//185 317//185 320//185 311//185
f 322//192 324//192 318//192 320//192
f 321//186 319//186 318//186 324//186
f 313//186 321//186 324//186 316//186
f 314//193 316//193 324//193 322//193
f 317//194 319//194 321//194 323//194
f 317//185 323//185 322//185 320//185
