# Blender v2.78 (sub 0) OBJ File: 'room.blend'
# www.blender.org
mtllib table-support.mtl
o Cube.045_Cube.048
v -0.795072 0.329612 0.212931
v -0.807505 0.329612 -0.264006
v -0.795072 0.242155 0.212931
v -0.807505 0.242155 -0.264006
v -0.748657 0.329612 0.211721
v -0.761089 0.329612 -0.265216
v -0.748657 0.242155 0.211721
v -0.761089 0.242155 -0.265216
v 0.620602 0.329613 0.176027
v 0.608169 0.329613 -0.300909
v 0.620602 0.242157 0.176027
v 0.608169 0.242157 -0.300909
v 0.667018 0.329613 0.174817
v 0.654585 0.329614 -0.302119
v 0.667018 0.242157 0.174817
v 0.654585 0.242157 -0.302119
vn -0.9997 -0.0000 0.0261
vn 0.0000 -1.0000 -0.0000
vn 0.9997 0.0000 -0.0261
vn -0.0000 1.0000 0.0000
vn 0.0261 0.0000 0.9997
vn -0.0261 -0.0000 -0.9997
usemtl None
s off
f 1//1 2//1 4//1 3//1
f 3//2 4//2 8//2 7//2
f 7//3 8//3 6//3 5//3
f 5//4 6//4 2//4 1//4
f 3//5 7//5 5//5 1//5
f 8//6 4//6 2//6 6//6
f 9//1 10//1 12//1 11//1
f 11//2 12//2 16//2 15//2
f 15//3 16//3 14//3 13//3
f 13//4 14//4 10//4 9//4
f 11//5 15//5 13//5 9//5
f 16//6 12//6 10//6 14//6
o Cube.044_Cube.047
v 0.653878 0.294561 -0.266275
v -0.778482 0.294561 -0.265330
v 0.653945 0.294561 -0.164346
v -0.778415 0.294561 -0.163401
v 0.653878 0.248132 -0.266275
v -0.778482 0.248132 -0.265330
v 0.653945 0.248132 -0.164346
v -0.778415 0.248132 -0.163401
v 0.653999 0.294561 -0.082803
v -0.778361 0.294561 -0.081859
v 0.654066 0.294561 0.019125
v -0.778294 0.294561 0.020070
v 0.653999 0.248132 -0.082803
v -0.778361 0.248132 -0.081859
v 0.654066 0.248132 0.019125
v -0.778294 0.248132 0.020070
v 0.654120 0.294561 0.100668
v -0.778240 0.294561 0.101613
v 0.654187 0.294561 0.202597
v -0.778173 0.294561 0.203542
v 0.654120 0.248132 0.100668
v -0.778240 0.248132 0.101613
v 0.654187 0.248132 0.202597
v -0.778173 0.248132 0.203542
vn -0.0000 1.0000 0.0000
vn 0.0007 0.0000 1.0000
vn 0.0000 -1.0000 0.0000
vn -0.0007 0.0000 -1.0000
vn 1.0000 0.0000 -0.0007
vn -1.0000 0.0000 0.0007
usemtl None
s off
f 17//7 18//7 20//7 19//7
f 19//8 20//8 24//8 23//8
f 23//9 24//9 22//9 21//9
f 21//10 22//10 18//10 17//10
f 19//11 23//11 21//11 17//11
f 24//12 20//12 18//12 22//12
f 25//7 26//7 28//7 27//7
f 27//8 28//8 32//8 31//8
f 31//9 32//9 30//9 29//9
f 29//10 30//10 26//10 25//10
f 27//11 31//11 29//11 25//11
f 32//12 28//12 26//12 30//12
f 33//7 34//7 36//7 35//7
f 35//8 36//8 40//8 39//8
f 39//9 40//9 38//9 37//9
f 37//10 38//10 34//10 33//10
f 35//11 39//11 37//11 33//11
f 40//12 36//12 34//12 38//12
o Cube.043_Cube.046
v 0.767218 1.162055 -0.129552
v -0.864426 1.162055 -0.128475
v 0.767327 1.162055 0.035868
v -0.864317 1.162055 0.036944
v 0.767218 1.115625 -0.129552
v -0.864426 1.115625 -0.128475
v 0.767327 1.115625 0.035868
v -0.864317 1.115625 0.036944
vn -0.0000 1.0000 0.0000
vn 0.0007 0.0000 1.0000
vn 0.0000 -1.0000 0.0000
vn -0.0007 0.0000 -1.0000
vn 1.0000 0.0000 -0.0007
vn -1.0000 0.0000 0.0007
usemtl None
s off
f 41//13 42//13 44//13 43//13
f 43//14 44//14 48//14 47//14
f 47//15 48//15 46//15 45//15
f 45//16 46//16 42//16 41//16
f 43//17 47//17 45//17 41//17
f 48//18 44//18 42//18 46//18
o Cube.042_Cube.045
v 0.602007 0.015351 -0.361319
v 0.602190 1.130128 -0.083807
v 0.711330 0.015351 -0.361391
v 0.711513 1.130128 -0.083879
v 0.602033 0.000933 -0.322743
v 0.602216 1.115709 -0.045231
v 0.711355 0.000933 -0.322816
v 0.711538 1.115709 -0.045304
v 0.602423 0.010040 0.269695
v 0.602214 1.114220 -0.047361
v 0.711746 0.010040 0.269623
v 0.711537 1.114220 -0.047433
v 0.602450 0.016841 0.310312
v 0.602241 1.121021 -0.006744
v 0.711773 0.016841 0.310239
v 0.711564 1.121021 -0.006816
v -0.819188 0.015351 -0.360381
v -0.819005 1.130128 -0.082869
v -0.709865 0.015351 -0.360453
v -0.709682 1.130128 -0.082941
v -0.819162 0.000933 -0.321806
v -0.818979 1.115709 -0.044294
v -0.709840 0.000933 -0.321878
v -0.709657 1.115709 -0.044366
v -0.818771 0.010040 0.270633
v -0.818981 1.114220 -0.046423
v -0.709449 0.010040 0.270561
v -0.709658 1.114220 -0.046495
v -0.818744 0.016841 0.311249
v -0.818954 1.121021 -0.005806
v -0.709422 0.016841 0.311177
v -0.709631 1.121021 -0.005878
vn -0.0006 0.2416 -0.9704
vn 1.0000 0.0000 -0.0007
vn 0.0006 -0.2416 0.9704
vn -1.0000 -0.0000 0.0007
vn -0.0002 -0.9367 -0.3501
vn 0.0002 0.9367 0.3501
vn -0.0006 -0.2760 -0.9612
vn 0.0006 0.2760 0.9612
vn 0.0001 -0.9863 0.1651
vn -0.0001 0.9863 -0.1651
usemtl None
s off
f 49//19 50//19 52//19 51//19
f 51//20 52//20 56//20 55//20
f 55//21 56//21 54//21 53//21
f 53//22 54//22 50//22 49//22
f 51//23 55//23 53//23 49//23
f 56//24 52//24 50//24 54//24
f 57//25 58//25 60//25 59//25
f 59//20 60//20 64//20 63//20
f 63//26 64//26 62//26 61//26
f 61//22 62//22 58//22 57//22
f 59//27 63//27 61//27 57//27
f 64//28 60//28 58//28 62//28
f 65//19 66//19 68//19 67//19
f 67//20 68//20 72//20 71//20
f 71//21 72//21 70//21 69//21
f 69//22 70//22 66//22 65//22
f 67//23 71//23 69//23 65//23
f 72//24 68//24 66//24 70//24
f 73//25 74//25 76//25 75//25
f 75//20 76//20 80//20 79//20
f 79//26 80//26 78//26 77//26
f 77//22 78//22 74//22 73//22
f 75//27 79//27 77//27 73//27
f 80//28 76//28 74//28 78//28
