# Blender v2.78 (sub 0) OBJ File: 'room.blend'
# www.blender.org
mtllib tv.mtl
o Cube.038_Cube.002
v 10.621996 1.361977 -1.976786
v 10.621996 2.698062 -1.976786
v 10.621996 1.361977 -2.248140
v 10.621996 2.698062 -2.248140
v 12.812760 1.361977 -1.976786
v 12.812760 2.698062 -1.976786
v 12.812760 1.361977 -2.248140
v 12.812760 2.698062 -2.248140
v 10.668941 1.361977 -2.248140
v 10.668941 2.698062 -2.248140
v 10.668941 1.361977 -1.976786
v 10.668941 2.698062 -1.976786
v 12.765747 2.698062 -2.248140
v 12.765747 1.361977 -1.976786
v 12.765747 1.361977 -2.248140
v 12.765747 2.698062 -1.976786
v 10.621996 2.651017 -1.976786
v 10.621996 2.651017 -2.248140
v 12.812760 2.651017 -2.248140
v 12.812760 2.651017 -1.976786
v 10.668941 2.651017 -1.976786
v 10.668941 2.651017 -2.248140
v 12.765747 2.651017 -1.976786
v 12.765747 2.651017 -2.248140
v 10.621996 1.418294 -2.248140
v 12.812760 1.418294 -2.248140
v 12.812760 1.418294 -1.976786
v 10.668941 1.418294 -1.976786
v 10.668941 1.418294 -2.248140
v 12.765747 1.418294 -1.976786
v 12.765747 1.418294 -2.248140
v 10.621996 1.418294 -1.976786
v 12.765747 2.651017 -2.039321
v 10.668941 2.651017 -2.039321
v 10.668941 1.418294 -2.039321
v 12.765747 1.418294 -2.039321
v 11.860929 2.091325 -2.522120
v 11.860929 0.222428 -2.522120
v 11.572768 0.222428 -2.522120
v 11.572768 2.091325 -2.522120
v 11.611938 0.222428 -2.509393
v 11.611938 2.091325 -2.509393
v 11.636146 0.222428 -2.476074
v 11.636146 2.091325 -2.476074
v 11.636146 0.222428 -2.434889
v 11.636146 2.091325 -2.434889
v 11.611938 0.222428 -2.401569
v 11.611938 2.091325 -2.401569
v 11.572768 0.222428 -2.388842
v 11.572768 2.091325 -2.388842
v 11.533599 0.222428 -2.401569
v 11.533599 2.091325 -2.401569
v 11.509391 0.222428 -2.434889
v 11.509391 2.091325 -2.434889
v 11.509391 0.222428 -2.476074
v 11.509391 2.091325 -2.476074
v 11.533599 0.222428 -2.509393
v 11.533599 2.091325 -2.509393
v 11.900098 0.222428 -2.509393
v 11.900098 2.091325 -2.509393
v 11.924306 0.222428 -2.476074
v 11.924306 2.091325 -2.476074
v 11.924306 0.222428 -2.434889
v 11.924306 2.091325 -2.434889
v 11.900098 0.222428 -2.401569
v 11.900098 2.091325 -2.401569
v 11.860929 0.222428 -2.388842
v 11.860929 2.091325 -2.388842
v 11.821759 0.222428 -2.401569
v 11.821759 2.091325 -2.401569
v 11.797551 0.222428 -2.434889
v 11.797551 2.091325 -2.434889
v 11.797551 0.222428 -2.476074
v 11.797551 2.091325 -2.476074
v 11.821759 0.222428 -2.509393
v 11.821759 2.091325 -2.509393
v 11.271592 0.197548 -1.912466
v 11.271592 0.272884 -1.912466
v 11.271592 0.197548 -2.563256
v 11.271592 0.272884 -2.563256
v 12.174113 0.197548 -1.912466
v 12.174113 0.272884 -1.912466
v 12.174113 0.197548 -2.563256
v 12.174113 0.272884 -2.563256
v 12.045181 0.197548 -2.563256
v 11.916250 0.197548 -2.563256
v 11.787318 0.197548 -2.563256
v 11.658387 0.197548 -2.563256
v 11.529455 0.197548 -2.563256
v 11.400523 0.197548 -2.563256
v 11.400523 0.272884 -2.563256
v 11.529455 0.272884 -2.563256
v 11.658387 0.272884 -2.563256
v 11.787318 0.272884 -2.563256
v 11.916250 0.272884 -2.563256
v 12.045181 0.272884 -2.563256
v 11.400523 0.197548 -1.811535
v 11.529455 0.197548 -1.811535
v 11.658387 0.197548 -1.811535
v 11.787318 0.197548 -1.811535
v 11.916250 0.197548 -1.811535
v 12.045181 0.197548 -1.811535
v 12.045181 0.272884 -1.811535
v 11.916250 0.272884 -1.811535
v 11.787318 0.272884 -1.811535
v 11.658387 0.272884 -1.811535
v 11.529455 0.272884 -1.811535
v 11.400523 0.272884 -1.811535
v 11.271592 0.197548 -2.433098
v 11.271592 0.197548 -2.302940
v 11.271592 0.197548 -2.172782
v 11.271592 0.197548 -2.042624
v 11.271592 0.272884 -2.042624
v 11.271592 0.272884 -2.172782
v 11.271592 0.272884 -2.302940
v 11.271592 0.272884 -2.433098
v 12.174113 0.197548 -2.042624
v 12.174113 0.197548 -2.172782
v 12.174113 0.197548 -2.302940
v 12.174113 0.197548 -2.433098
v 12.174113 0.272884 -2.433098
v 12.174113 0.272884 -2.302940
v 12.174113 0.272884 -2.172782
v 12.174113 0.272884 -2.042624
v 11.400523 0.197548 -2.433098
v 11.400523 0.197548 -2.302940
v 11.400523 0.197548 -2.172782
v 11.400523 0.197548 -2.042624
v 11.529455 0.197548 -2.433098
v 11.510577 0.197548 -2.302940
v 11.510577 0.197548 -2.172782
v 11.529455 0.197548 -2.042624
v 11.658387 0.197548 -2.433098
v 11.658387 0.197548 -2.302940
v 11.658387 0.197548 -1.927310
v 11.787318 0.197548 -2.433098
v 11.787318 0.197548 -2.302940
v 11.787318 0.197548 -1.927310
v 11.916250 0.197548 -2.433098
v 11.939693 0.197548 -2.302940
v 11.939693 0.197548 -2.172782
v 11.916250 0.197548 -2.042624
v 12.045181 0.197548 -2.433098
v 12.045181 0.197548 -2.302940
v 12.045181 0.197548 -2.172782
v 12.045181 0.197548 -2.042624
v 12.045181 0.272884 -2.433098
v 12.045181 0.272884 -2.302940
v 12.045181 0.272884 -2.172782
v 12.045181 0.272884 -2.042624
v 11.916250 0.272884 -2.433098
v 11.939693 0.272884 -2.302940
v 11.939693 0.272884 -2.172782
v 11.916250 0.272884 -2.042624
v 11.787318 0.272884 -2.433098
v 11.787318 0.272884 -2.302940
v 11.787318 0.272884 -1.927310
v 11.658387 0.272884 -2.433098
v 11.658387 0.272884 -2.302940
v 11.658387 0.272884 -1.927310
v 11.529455 0.272884 -2.433098
v 11.510577 0.272884 -2.302940
v 11.510577 0.272884 -2.172782
v 11.529455 0.272884 -2.042624
v 11.400523 0.272884 -2.433098
v 11.400523 0.272884 -2.302940
v 11.400523 0.272884 -2.172782
v 11.400523 0.272884 -2.042624
v 11.375459 0.212917 -1.878792
v 11.411228 0.212917 -1.898804
v 12.066465 0.212917 -1.905620
v 12.089875 0.212917 -1.871976
v 12.097593 0.200595 -1.927279
v 12.121003 0.200595 -1.893635
v 12.116831 0.168338 -1.940665
v 12.140241 0.168338 -1.907021
v 12.116831 0.128465 -1.940665
v 12.140241 0.128465 -1.907021
v 12.097593 0.096207 -1.927279
v 12.121003 0.096207 -1.893635
v 12.066465 0.083885 -1.905620
v 12.089875 0.083885 -1.871976
v 12.035338 0.096207 -1.883961
v 12.058747 0.096207 -1.850317
v 12.016100 0.128465 -1.870575
v 12.039510 0.128465 -1.836931
v 12.016100 0.168338 -1.870575
v 12.039510 0.168338 -1.836931
v 12.035338 0.200595 -1.883961
v 12.058747 0.200595 -1.850317
v 11.429743 0.200595 -1.865710
v 11.393974 0.200595 -1.845698
v 11.441186 0.168338 -1.845257
v 11.405417 0.168338 -1.825245
v 11.441186 0.128465 -1.845257
v 11.405417 0.128465 -1.825245
v 11.429743 0.096207 -1.865710
v 11.393974 0.096207 -1.845698
v 11.411228 0.083885 -1.898804
v 11.375459 0.083885 -1.878792
v 11.392713 0.096207 -1.931898
v 11.356944 0.096207 -1.911886
v 11.381269 0.128465 -1.952351
v 11.345501 0.128465 -1.932339
v 11.381269 0.168338 -1.952351
v 11.345501 0.168338 -1.932339
v 11.392713 0.200595 -1.931898
v 11.356944 0.200595 -1.911886
v 12.058239 0.212917 -2.474616
v 12.098102 0.212917 -2.484149
v 12.049419 0.200595 -2.511497
v 12.089281 0.200595 -2.521030
v 12.043968 0.168338 -2.534291
v 12.083831 0.168338 -2.543824
v 12.043968 0.128465 -2.534291
v 12.083831 0.128465 -2.543824
v 12.049419 0.096207 -2.511497
v 12.089281 0.096207 -2.521030
v 12.058239 0.083885 -2.474616
v 12.098102 0.083885 -2.484149
v 12.067060 0.096207 -2.437735
v 12.106922 0.096207 -2.447268
v 12.072511 0.128465 -2.414940
v 12.112373 0.128465 -2.424474
v 12.072511 0.168338 -2.414940
v 12.112373 0.168338 -2.424474
v 12.067060 0.200595 -2.437735
v 12.106922 0.200595 -2.447268
v 11.337845 0.212917 -2.482071
v 11.378477 0.212917 -2.476694
v 11.342820 0.200595 -2.519665
v 11.383452 0.200595 -2.514287
v 11.345895 0.168338 -2.542899
v 11.386527 0.168338 -2.537522
v 11.345895 0.128465 -2.542899
v 11.386527 0.128465 -2.537522
v 11.342820 0.096207 -2.519665
v 11.383452 0.096207 -2.514287
v 11.337845 0.083885 -2.482071
v 11.378477 0.083885 -2.476694
v 11.332870 0.096207 -2.444478
v 11.373502 0.096207 -2.439100
v 11.329795 0.128465 -2.421243
v 11.370427 0.128465 -2.415866
v 11.329795 0.168338 -2.421243
v 11.370427 0.168338 -2.415866
v 11.332870 0.200595 -2.444478
v 11.373502 0.200595 -2.439100
v 11.018409 2.651017 -2.248140
v 11.367876 2.651017 -2.248140
v 11.717344 2.651017 -2.248140
v 12.066812 2.651017 -2.248140
v 12.416279 2.651017 -2.248140
v 10.668941 2.445564 -2.248140
v 10.668941 2.240110 -2.248140
v 10.668941 2.034656 -2.248140
v 10.668941 1.829202 -2.248140
v 10.668941 1.623748 -2.248140
v 12.765747 2.445564 -2.248140
v 12.765747 2.240110 -2.248140
v 12.765747 2.034656 -2.248140
v 12.765747 1.829202 -2.248140
v 12.765747 1.623748 -2.248140
v 11.018409 1.418294 -2.248140
v 11.367876 1.418294 -2.248140
v 11.717344 1.418294 -2.248140
v 12.066812 1.418294 -2.248140
v 12.416279 1.418294 -2.248140
v 11.018409 1.623748 -2.318709
v 11.367876 1.623748 -2.318709
v 11.717344 1.623748 -2.318709
v 12.066812 1.623748 -2.318709
v 12.416279 1.623748 -2.318709
v 11.018409 1.829202 -2.318709
v 11.367876 1.829202 -2.342232
v 11.717344 1.829202 -2.342232
v 12.066812 1.829202 -2.342232
v 12.416279 1.829202 -2.318709
v 11.018409 2.034656 -2.318709
v 11.367876 2.034656 -2.342232
v 12.066812 2.034656 -2.342232
v 12.416279 2.034656 -2.318709
v 11.018409 2.240110 -2.318709
v 11.367876 2.240110 -2.342232
v 11.717344 2.240110 -2.342232
v 12.066812 2.240110 -2.342232
v 12.416279 2.240110 -2.318709
v 11.018409 2.445564 -2.318709
v 11.367876 2.445564 -2.318709
v 11.717344 2.445564 -2.318709
v 12.066812 2.445564 -2.318709
v 12.416279 2.445564 -2.318709
v 11.410999 1.854554 -2.546965
v 11.717344 1.854554 -2.546965
v 12.023689 1.854554 -2.546965
v 11.410999 2.034656 -2.546965
v 11.717344 2.034656 -2.546965
v 12.023689 2.034656 -2.546965
v 11.410999 2.214757 -2.546965
v 11.717344 2.214757 -2.546965
v 12.023689 2.214757 -2.546965
vn -1.0000 0.0000 0.0000
vn 0.0000 0.0000 -1.0000
vn 1.0000 0.0000 0.0000
vn 0.0000 0.0000 1.0000
vn 0.0000 -1.0000 0.0000
vn 0.0000 1.0000 0.0000
vn 0.0990 0.1684 -0.9807
vn 0.3090 0.0000 -0.9511
vn 0.8090 0.0000 -0.5878
vn -0.6164 0.0000 0.7874
vn -0.8090 0.0000 0.5878
vn -0.3090 0.0000 0.9511
vn 0.8090 0.0000 0.5878
vn 0.3090 0.0000 0.9511
vn -0.3090 0.0000 -0.9511
vn -0.8090 0.0000 -0.5878
vn 0.6164 0.0000 0.7874
vn -0.9842 0.0000 -0.1773
vn -0.6666 0.0000 -0.7454
vn 0.6666 0.0000 -0.7454
vn 0.9896 0.0000 -0.1435
vn 0.0719 -0.9511 0.3005
vn -0.8727 0.0000 0.4883
vn 0.2536 0.9511 -0.1765
vn 0.1882 -0.5878 0.7868
vn -0.4883 0.0000 -0.8727
vn 0.6641 0.5878 -0.4621
vn -0.1882 -0.5878 -0.7868
vn -0.3950 -0.5878 -0.7060
vn 0.8208 0.0000 -0.5712
vn -0.2326 0.0000 -0.9726
vn -0.1509 -0.9511 -0.2697
vn 0.6641 -0.5878 -0.4621
vn -0.1882 0.5878 -0.7868
vn 0.1509 -0.9511 0.2697
vn 0.2537 -0.9511 -0.1765
vn -0.0719 0.9511 -0.3005
vn 0.3950 -0.5878 0.7060
vn -0.2537 -0.9511 0.1765
vn 0.8727 -0.0000 -0.4883
vn 0.4883 0.0000 0.8727
vn -0.6641 -0.5878 0.4621
vn -0.1509 0.9511 -0.2697
vn 0.3950 0.5878 0.7060
vn -0.8208 0.0000 0.5712
vn 0.5712 -0.0000 0.8208
vn 0.1509 0.9511 0.2697
vn -0.6641 0.5878 0.4621
vn -0.0719 -0.9511 -0.3005
vn -0.3950 0.5878 -0.7060
vn -0.2537 0.9511 0.1765
vn -0.5712 0.0000 -0.8208
vn 0.2326 0.0000 0.9726
vn 0.9726 -0.0000 -0.2326
vn 0.1882 0.5878 0.7868
vn 0.0719 0.9511 0.3005
vn -0.9726 -0.0000 0.2326
vn -0.0405 -0.9511 0.3063
vn -0.1061 -0.5878 0.8020
vn 0.1061 -0.5878 -0.8020
vn 0.1312 0.0000 -0.9914
vn 0.1061 0.5878 -0.8020
vn 0.0405 0.9511 -0.3063
vn 0.0405 -0.9511 -0.3063
vn -0.1312 0.0000 0.9914
vn 0.9914 -0.0000 0.1312
vn -0.1061 0.5878 0.8020
vn -0.0405 0.9511 0.3063
vn -0.9914 -0.0000 -0.1312
vn 0.0990 -0.1684 -0.9807
vn 0.1979 0.0000 -0.9802
vn -0.0990 -0.1684 -0.9807
vn 0.0000 -0.3248 -0.9458
vn -0.1979 0.0000 -0.9802
vn -0.0336 -0.0571 -0.9978
vn 0.0000 -0.1137 -0.9935
vn 0.0336 -0.0571 -0.9978
vn -0.0672 0.0000 -0.9977
vn -0.9785 0.0000 -0.2061
vn 0.0000 0.9924 -0.1229
vn 0.0672 0.0000 -0.9977
vn 0.0000 -0.9924 -0.1229
vn 0.9785 0.0000 -0.2061
vn -0.0336 0.0571 -0.9978
vn 0.0000 0.1137 -0.9935
vn 0.0336 0.0571 -0.9978
vn -0.0990 0.1684 -0.9807
vn 0.0000 0.3248 -0.9458
usemtl None
s off
f 17//1 2//1 4//1 18//1
f 24//2 13//2 8//2 19//2
f 19//3 8//3 6//3 20//3
f 21//4 12//4 2//4 17//4
f 15//5 7//5 5//5 14//5
f 10//6 4//6 2//6 12//6
f 13//6 10//6 12//6 16//6
f 3//5 9//5 11//5 1//5
f 23//4 16//4 12//4 21//4
f 18//2 4//2 10//2 22//2
f 20//4 6//4 16//4 23//4
f 8//6 13//6 16//6 6//6
f 9//5 15//5 14//5 11//5
f 22//2 10//2 13//2 24//2 253//2 252//2 251//2 250//2 249//2
f 292//7 253//7 24//7 259//7
f 27//4 20//4 23//4 30//4
f 25//2 18//2 22//2 254//2 255//2 256//2 257//2 258//2 29//2
f 30//1 23//1 33//1 36//1
f 28//4 21//4 17//4 32//4
f 26//3 19//3 20//3 27//3
f 31//2 263//2 262//2 261//2 260//2 259//2 24//2 19//2 26//2
f 32//1 17//1 18//1 25//1
f 1//1 32//1 25//1 3//1
f 15//2 31//2 26//2 7//2
f 7//3 26//3 27//3 5//3
f 11//4 28//4 32//4 1//4
f 14//4 30//4 28//4 11//4
f 3//2 25//2 29//2 9//2
f 5//4 27//4 30//4 14//4
f 9//2 29//2 264//2 265//2 266//2 267//2 268//2 31//2 15//2
f 36//4 33//4 34//4 35//4
f 21//3 28//3 35//3 34//3
f 28//6 30//6 36//6 35//6
f 23//5 21//5 34//5 33//5
f 168//6 113//6 78//6 108//6
f 60//6 37//6 76//6 74//6 72//6 70//6 68//6 66//6 64//6 62//6
f 39//8 40//8 42//8 41//8
f 112//5 128//5 97//5 77//5
f 71//1 72//1 74//1 73//1
f 41//9 42//9 44//9 43//9
f 97//10 108//10 78//10 77//10
f 69//11 70//11 72//11 71//11
f 43//3 44//3 46//3 45//3
f 117//3 124//3 82//3 81//3
f 67//12 68//12 70//12 69//12
f 45//13 46//13 48//13 47//13
f 85//2 96//2 84//2 83//2
f 65//14 66//14 68//14 67//14
f 47//14 48//14 50//14 49//14
f 109//1 116//1 80//1 79//1
f 63//13 64//13 66//13 65//13
f 49//12 50//12 52//12 51//12
f 38//5 59//5 61//5 63//5 65//5 67//5 69//5 71//5 73//5 75//5
f 61//3 62//3 64//3 63//3
f 51//11 52//11 54//11 53//11
f 75//15 76//15 37//15 38//15
f 59//9 60//9 62//9 61//9
f 53//1 54//1 56//1 55//1
f 42//6 40//6 58//6 56//6 54//6 52//6 50//6 48//6 46//6 44//6
f 38//8 37//8 60//8 59//8
f 55//16 56//16 58//16 57//16
f 146//5 117//5 81//5 102//5
f 73//16 74//16 76//16 75//16
f 57//15 58//15 40//15 39//15
f 39//5 41//5 43//5 45//5 47//5 49//5 51//5 53//5 55//5 57//5
f 128//5 132//5 98//5 97//5
f 132//5 135//5 99//5 98//5
f 135//5 138//5 100//5 99//5
f 138//5 142//5 101//5 100//5
f 142//5 146//5 102//5 101//5
f 79//2 80//2 91//2 90//2
f 90//2 91//2 92//2 89//2
f 89//2 92//2 93//2 88//2
f 88//2 93//2 94//2 87//2
f 87//2 94//2 95//2 86//2
f 86//2 95//2 96//2 85//2
f 81//17 82//17 103//17 102//17
f 102//4 103//4 104//4 101//4
f 101//4 104//4 105//4 100//4
f 100//4 105//4 106//4 99//4
f 99//4 106//4 107//4 98//4
f 98//4 107//4 108//4 97//4
f 124//6 150//6 103//6 82//6
f 150//6 154//6 104//6 103//6
f 154//6 157//6 105//6 104//6
f 157//6 160//6 106//6 105//6
f 160//6 164//6 107//6 106//6
f 164//6 168//6 108//6 107//6
f 92//6 91//6 165//6 161//6
f 161//6 165//6 166//6 162//6
f 162//6 166//6 167//6 163//6
f 163//6 167//6 168//6 164//6
f 93//6 92//6 161//6 158//6
f 158//6 161//6 162//6 159//6
f 94//6 93//6 158//6 155//6
f 155//6 158//6 159//6 156//6
f 95//6 94//6 155//6 151//6
f 151//6 155//6 156//6 152//6
f 96//6 95//6 151//6 147//6
f 147//6 151//6 152//6 148//6
f 148//6 152//6 153//6 149//6
f 149//6 153//6 154//6 150//6
f 84//6 96//6 147//6 121//6
f 121//6 147//6 148//6 122//6
f 122//6 148//6 149//6 123//6
f 123//6 149//6 150//6 124//6
f 86//5 85//5 143//5 139//5
f 139//5 143//5 144//5 140//5
f 140//5 144//5 145//5 141//5
f 141//5 145//5 146//5 142//5
f 87//5 86//5 139//5 136//5
f 136//5 139//5 140//5 137//5
f 88//5 87//5 136//5 133//5
f 133//5 136//5 137//5 134//5
f 89//5 88//5 133//5 129//5
f 129//5 133//5 134//5 130//5
f 162//4 130//4 134//4 159//4
f 90//5 89//5 129//5 125//5
f 125//5 129//5 130//5 126//5
f 126//5 130//5 131//5 127//5
f 127//5 131//5 132//5 128//5
f 85//5 83//5 120//5 143//5
f 143//5 120//5 119//5 144//5
f 144//5 119//5 118//5 145//5
f 145//5 118//5 117//5 146//5
f 77//1 78//1 113//1 112//1
f 112//1 113//1 114//1 111//1
f 111//1 114//1 115//1 110//1
f 110//1 115//1 116//1 109//1
f 83//3 84//3 121//3 120//3
f 120//3 121//3 122//3 119//3
f 119//3 122//3 123//3 118//3
f 118//3 123//3 124//3 117//3
f 79//5 90//5 125//5 109//5
f 109//5 125//5 126//5 110//5
f 110//5 126//5 127//5 111//5
f 111//5 127//5 128//5 112//5
f 91//6 80//6 116//6 165//6
f 165//6 116//6 115//6 166//6
f 166//6 115//6 114//6 167//6
f 167//6 114//6 113//6 168//6
f 159//4 134//4 137//4 156//4
f 156//4 137//4 140//4 152//4
f 141//1 153//1 152//1 140//1
f 142//18 154//18 153//18 141//18
f 157//19 154//19 142//19 138//19
f 160//2 157//2 138//2 135//2
f 164//20 160//20 135//20 132//20
f 132//21 131//21 163//21 164//21
f 131//3 130//3 162//3 163//3
f 219//22 220//22 222//22 221//22
f 192//23 169//23 208//23 206//23 204//23 202//23 200//23 198//23 196//23 194//23
f 171//24 172//24 174//24 173//24
f 221//25 222//25 224//25 223//25
f 203//26 204//26 206//26 205//26
f 173//27 174//27 176//27 175//27
f 215//28 216//28 218//28 217//28
f 201//29 202//29 204//29 203//29
f 175//30 176//30 178//30 177//30
f 213//31 214//31 216//31 215//31
f 199//32 200//32 202//32 201//32
f 177//33 178//33 180//33 179//33
f 211//34 212//34 214//34 213//34
f 197//35 198//35 200//35 199//35
f 179//36 180//36 182//36 181//36
f 209//37 210//37 212//37 211//37
f 195//38 196//38 198//38 197//38
f 181//39 182//39 184//39 183//39
f 170//40 191//40 193//40 195//40 197//40 199//40 201//40 203//40 205//40 207//40
f 193//41 194//41 196//41 195//41
f 183//42 184//42 186//42 185//42
f 207//43 208//43 169//43 170//43
f 191//44 192//44 194//44 193//44
f 185//45 186//45 188//45 187//45
f 174//46 172//46 190//46 188//46 186//46 184//46 182//46 180//46 178//46 176//46
f 170//47 169//47 192//47 191//47
f 187//48 188//48 190//48 189//48
f 217//49 218//49 220//49 219//49
f 205//50 206//50 208//50 207//50
f 189//51 190//51 172//51 171//51
f 171//52 173//52 175//52 177//52 179//52 181//52 183//52 185//52 187//52 189//52
f 223//53 224//53 226//53 225//53
f 212//54 210//54 228//54 226//54 224//54 222//54 220//54 218//54 216//54 214//54
f 225//55 226//55 228//55 227//55
f 227//56 228//56 210//56 209//56
f 209//57 211//57 213//57 215//57 217//57 219//57 221//57 223//57 225//57 227//57
f 239//58 240//58 242//58 241//58
f 241//59 242//59 244//59 243//59
f 235//60 236//60 238//60 237//60
f 233//61 234//61 236//61 235//61
f 231//62 232//62 234//62 233//62
f 229//63 230//63 232//63 231//63
f 237//64 238//64 240//64 239//64
f 243//65 244//65 246//65 245//65
f 232//66 230//66 248//66 246//66 244//66 242//66 240//66 238//66 236//66 234//66
f 245//67 246//67 248//67 247//67
f 247//68 248//68 230//68 229//68
f 229//69 231//69 233//69 235//69 237//69 239//69 241//69 243//69 245//69 247//69
f 268//70 273//70 263//70 31//70
f 273//71 278//71 262//71 263//71
f 278//71 282//71 261//71 262//71
f 282//71 287//71 260//71 261//71
f 287//71 292//71 259//71 260//71
f 29//72 258//72 269//72 264//72
f 264//73 269//73 270//73 265//73
f 265//73 270//73 271//73 266//73
f 266//73 271//73 272//73 267//73
f 267//73 272//73 273//73 268//73
f 258//74 257//74 274//74 269//74
f 269//75 274//75 275//75 270//75
f 270//76 275//76 276//76 271//76
f 271//76 276//76 277//76 272//76
f 272//77 277//77 278//77 273//77
f 257//74 256//74 279//74 274//74
f 274//78 279//78 280//78 275//78
f 275//79 280//79 296//79 293//79
f 284//80 285//80 300//80 299//80
f 277//81 281//81 282//81 278//81
f 256//74 255//74 283//74 279//74
f 279//78 283//78 284//78 280//78
f 277//82 276//82 294//82 295//82
f 281//83 277//83 295//83 298//83
f 281//81 286//81 287//81 282//81
f 255//74 254//74 288//74 283//74
f 283//84 288//84 289//84 284//84
f 284//85 289//85 290//85 285//85
f 285//85 290//85 291//85 286//85
f 286//86 291//86 292//86 287//86
f 254//87 22//87 249//87 288//87
f 288//88 249//88 250//88 289//88
f 289//88 250//88 251//88 290//88
f 290//88 251//88 252//88 291//88
f 291//88 252//88 253//88 292//88
f 293//2 296//2 297//2 294//2
f 294//2 297//2 298//2 295//2
f 296//2 299//2 300//2 297//2
f 297//2 300//2 301//2 298//2
f 286//83 281//83 298//83 301//83
f 280//79 284//79 299//79 296//79
f 285//80 286//80 301//80 300//80
f 276//82 275//82 293//82 294//82
