# Blender v2.78 (sub 0) OBJ File: 'noir.blend'
# www.blender.org
mtllib room.mtl
o Plane
v -0.434480 -4.991320 11.278096
v -0.434481 -4.991320 -12.106610
v -0.434479 14.855797 11.278096
v -0.434480 14.855797 -12.106610
v -0.434480 -4.991320 2.488393
v -0.434480 -4.991320 -2.266571
v -0.434480 14.855797 -2.266571
v -0.434480 14.855797 2.488393
v -0.434480 6.438885 11.278096
v -0.434480 1.683921 11.278096
v -0.434480 1.683921 -12.106610
v -0.434480 6.438885 -12.106610
v -0.434480 0.088957 3.405435
v -0.434480 7.955492 3.405435
v -0.434480 0.088957 -3.302918
v -0.434480 7.955492 -3.302918
v 30.634350 -3.161216 -12.106610
v 30.634350 16.685902 -12.106610
v 30.634350 3.514026 -12.106610
v 30.634350 8.268990 -12.106610
v 32.896206 -4.991321 11.278096
v 32.896206 14.855797 11.278096
v 32.896206 6.438885 11.278096
v 32.896206 1.683921 11.278096
v 31.388300 16.075867 -4.311707
v 32.142258 15.465833 3.483194
v 31.388300 2.903991 -4.311707
v 32.142258 2.293956 3.483194
v 31.388300 7.658955 -4.311707
v 32.142258 7.048920 3.483194
v 31.388300 -3.771251 -4.311707
v 32.142258 -4.381285 3.483194
v -1.141655 -4.991320 11.278096
v -1.141656 -4.991320 -12.106610
v -1.141655 14.855797 11.278096
v -1.141655 14.855797 -12.106610
v -1.141656 -4.991320 2.488393
v -1.141656 -4.991320 -2.266571
v -1.141655 14.855797 -2.266571
v -1.141655 14.855797 2.488393
v -1.141655 6.438885 11.278096
v -1.141655 1.683921 11.278096
v -1.141656 1.683921 -12.106610
v -1.141656 6.438885 -12.106610
v -1.141655 0.088957 3.405435
v -1.141655 7.955492 3.405435
v -1.141656 0.088957 -3.302918
v -1.141655 7.955492 -3.302918
v -0.434480 -5.023215 11.341889
v -0.434481 -5.023701 -12.170159
v -0.434723 14.905752 11.329000
v -0.435671 14.906188 -12.157072
v -0.434480 -5.062645 2.488393
v -0.434480 -5.062645 -2.266571
v -0.435799 14.927091 -2.265014
v -0.435150 14.927099 2.489956
v -0.434480 6.438885 11.349421
v -0.434480 1.683921 11.349421
v -0.434480 1.683921 -12.177936
v -0.434480 6.438885 -12.177936
v -0.434480 0.139389 3.355002
v -0.434480 7.905059 3.355002
v -0.434480 0.139389 -3.252486
v -0.434480 7.905059 -3.252486
v 30.682570 -3.161216 -12.159163
v 30.671564 16.729767 -12.148775
v 30.682293 3.514026 -12.159415
v 30.682293 8.268990 -12.159415
v 32.947651 -4.991321 11.327497
v 32.940151 14.895609 11.317730
v 32.949013 6.438885 11.326040
v 32.949013 1.683921 11.326040
v 31.437653 16.127285 -4.314424
v 32.192101 15.516775 3.480487
v 31.459293 2.903991 -4.318573
v 32.213249 2.293956 3.476329
v 31.459293 7.658955 -4.318573
v 32.213249 7.048920 3.476329
v 31.459293 -3.771251 -4.318573
v 32.213249 -4.381285 3.476329
v -1.182835 -5.032499 11.319276
v -1.182835 -5.032499 -12.147790
v -1.182834 14.896976 11.319276
v -1.182835 14.896976 -12.147790
v -1.192088 -5.041752 2.488393
v -1.192088 -5.041752 -2.266571
v -1.192088 14.906229 -2.266571
v -1.192087 14.906229 2.488393
v -1.192087 6.438885 11.328528
v -1.192088 1.683921 11.328528
v -1.192088 1.683921 -12.157043
v -1.192088 6.438885 -12.157043
v -1.206169 0.110461 3.383931
v -1.206169 7.933988 3.383931
v -1.206169 0.110461 -3.281415
v -1.206169 7.933988 -3.281415
vn 0.0000 1.0000 -0.0000
vn 0.0000 0.0000 -1.0000
vn 0.0000 -1.0000 0.0000
vn 0.0000 0.0000 1.0000
vn -0.9954 0.0000 0.0963
vn 0.0472 -0.9982 -0.0365
vn 0.0276 -0.9984 -0.0502
vn 0.0098 -0.9993 -0.0372
vn 1.0000 0.0000 -0.0000
vn -0.0375 -0.9993 0.0000
vn -0.0077 -1.0000 0.0028
vn -0.0276 0.0000 0.9996
vn -0.0375 0.9993 0.0000
vn -0.0197 0.9998 0.0017
vn -0.0203 0.0018 0.9998
vn -0.0375 0.0000 0.9993
vn -0.0201 0.0018 -0.9998
vn 0.0006 0.0000 -1.0000
vn 0.0005 -0.0006 -1.0000
vn 0.0003 0.0019 -1.0000
vn 0.0007 0.0000 1.0000
vn 0.0005 0.0017 1.0000
vn 0.0006 -0.0005 1.0000
vn 0.9956 0.0017 -0.0940
vn 0.9956 0.0000 -0.0933
vn 0.9956 -0.0001 -0.0932
vn 0.9951 0.0000 -0.0986
vn 0.9954 0.0000 -0.0963
vn 0.9952 0.0020 -0.0978
vn 0.9954 0.0026 -0.0961
vn -0.0468 0.9983 0.0348
vn -0.0269 0.9984 0.0502
vn -0.0094 0.9992 0.0389
vn -1.0000 0.0016 -0.0014
vn -1.0000 0.0016 0.0015
vn -1.0000 0.0020 0.0000
vn -1.0000 -0.0027 0.0000
vn -1.0000 -0.0021 0.0016
vn -1.0000 0.0000 0.0018
vn -1.0000 -0.0021 -0.0014
vn -1.0000 0.0000 -0.0016
vn -0.0287 -0.0013 -0.9996
vn -0.0276 -0.9996 0.0000
vn -0.0276 0.0000 -0.9996
vn -0.0200 0.9998 -0.0015
vn -0.0276 0.9996 0.0000
vn -0.0289 -0.0013 0.9996
vn -0.0375 0.0000 -0.9993
vn -0.0081 -1.0000 -0.0024
vn 0.0567 -0.9554 0.2900
vn 0.0004 -0.9625 -0.2714
vn 0.0279 -0.9964 -0.0804
vn -0.0370 -0.9966 -0.0741
vn -0.0075 -0.9970 -0.0773
usemtl None
s off
f 14//1 16//1 48//1 46//1
f 1//1 5//1 37//1 33//1
f 9//2 10//2 42//2 41//2
f 15//3 13//3 45//3 47//3
f 8//3 3//3 35//3 40//3
f 3//2 9//2 41//2 35//2
f 16//2 15//2 47//2 48//2
f 12//4 4//4 36//4 44//4
f 12//4 11//4 19//4 20//4
f 11//4 2//4 17//4 19//4
f 4//4 12//4 20//4 18//4
f 10//2 9//2 23//2 24//2
f 9//2 3//2 22//2 23//2
f 1//2 10//2 24//2 21//2
f 30//5 23//5 22//5 26//5
f 28//5 24//5 23//5 30//5
f 32//5 21//5 24//5 28//5
f 17//5 31//5 27//5 19//5
f 31//5 32//5 28//5 27//5
f 19//5 27//5 29//5 20//5
f 27//5 28//5 30//5 29//5
f 20//5 29//5 25//5 18//5
f 29//5 30//5 26//5 25//5
f 7//6 4//6 18//6 25//6
f 8//7 7//7 25//7 26//7
f 3//8 8//8 26//8 22//8
f 48//9 44//9 36//9 39//9
f 41//9 46//9 40//9 35//9
f 46//9 48//9 39//9 40//9
f 37//9 38//9 47//9 45//9
f 33//9 37//9 45//9 42//9
f 42//9 45//9 46//9 41//9
f 38//9 34//9 43//9 47//9
f 47//9 43//9 44//9 48//9
f 2//4 11//4 43//4 34//4
f 5//1 6//1 38//1 37//1
f 11//4 12//4 44//4 43//4
f 4//3 7//3 39//3 36//3
f 7//3 8//3 40//3 39//3
f 10//2 1//2 33//2 42//2
f 13//4 14//4 46//4 45//4
f 6//1 2//1 34//1 38//1
f 62//10 94//10 96//10 64//10
f 49//11 81//11 85//11 53//11
f 57//12 89//12 90//12 58//12
f 63//13 95//13 93//13 61//13
f 56//14 88//14 83//14 51//14
f 51//15 83//15 89//15 57//15
f 64//16 96//16 95//16 63//16
f 60//17 92//17 84//17 52//17
f 60//18 68//18 67//18 59//18
f 59//19 67//19 65//19 50//19
f 52//20 66//20 68//20 60//20
f 58//21 72//21 71//21 57//21
f 57//22 71//22 70//22 51//22
f 49//23 69//23 72//23 58//23
f 78//24 74//24 70//24 71//24
f 76//25 78//25 71//25 72//25
f 80//26 76//26 72//26 69//26
f 65//27 67//27 75//27 79//27
f 79//28 75//28 76//28 80//28
f 67//27 68//27 77//27 75//27
f 75//28 77//28 78//28 76//28
f 68//29 66//29 73//29 77//29
f 77//30 73//30 74//30 78//30
f 55//31 73//31 66//31 52//31
f 56//32 74//32 73//32 55//32
f 51//33 70//33 74//33 56//33
f 96//34 87//34 84//34 92//34
f 89//35 83//35 88//35 94//35
f 94//36 88//36 87//36 96//36
f 85//37 93//37 95//37 86//37
f 81//38 90//38 93//38 85//38
f 90//39 89//39 94//39 93//39
f 86//40 95//40 91//40 82//40
f 95//41 96//41 92//41 91//41
f 50//42 82//42 91//42 59//42
f 53//43 85//43 86//43 54//43
f 59//44 91//44 92//44 60//44
f 52//45 84//45 87//45 55//45
f 55//46 87//46 88//46 56//46
f 58//47 90//47 81//47 49//47
f 61//48 93//48 94//48 62//48
f 54//49 86//49 82//49 50//49
f 2//9 6//9 54//9 50//9
f 5//9 1//9 49//9 53//9
f 6//9 5//9 53//9 54//9
f 14//9 13//9 61//9 62//9
f 15//9 16//9 64//9 63//9
f 13//9 15//9 63//9 61//9
f 16//9 14//9 62//9 64//9
f 17//50 2//50 50//50 65//50
f 1//51 21//51 69//51 49//51
f 21//52 32//52 80//52 69//52
f 31//53 17//53 65//53 79//53
f 32//54 31//54 79//54 80//54
